<svg width="40" height="31" viewBox="0 0 40 31" fill="none" xmlns="http://www.w3.org/2000/svg">
<path d="M29.6477 15.8054C31.7435 15.8054 33.4485 14.0577 33.4485 11.9096V3.07374C33.8584 3.22061 34.3013 3.47005 34.6685 3.89222C35.4052 4.73913 35.6756 6.0882 35.4721 7.90189L37.8005 8.1764C38.0836 5.65298 37.6184 3.67369 36.418 2.29354C34.9417 0.596366 32.8749 0.464478 32.2766 0.464478H31.1048V8.31213C30.6558 8.12035 30.1637 8.014 29.6477 8.014C27.552 8.014 25.847 9.76163 25.847 11.9098C25.847 14.058 27.552 15.8054 29.6477 15.8054ZM29.6477 10.4162C30.4512 10.4162 31.1048 11.0861 31.1048 11.9096C31.1048 12.7332 30.4512 13.4031 29.6477 13.4031C28.8443 13.4031 28.1907 12.7331 28.1907 11.9096C28.1907 11.0862 28.8443 10.4162 29.6477 10.4162Z" fill="#ED7226"/>
<path d="M37.1987 23.8231L33.1734 22.1935L32.3187 22.4498C31.4951 22.6968 30.5988 22.5216 29.9216 21.9813L20.8211 14.7207V1.28058H0V30.5358H23.075L23.3764 26.2015C25.7153 27.3994 27.7105 30.0341 27.7334 30.0647L28.0852 30.5358H40V28.0443C40 26.1689 38.9004 24.512 37.1987 23.8231ZM2.34375 28.1334V3.68292H18.4773V13.2097L17.9437 13.7499C17.8753 13.8191 16.3277 15.4125 15.988 17.8355C15.5821 16.5751 14.7811 15.4978 13.7349 14.7587C14.6961 13.8431 15.2991 12.5374 15.2991 11.0895C15.2991 8.32665 13.1062 6.07886 10.4106 6.07886C7.71508 6.07886 5.52219 8.32657 5.52219 11.0895C5.52219 12.5374 6.12508 13.8431 7.08625 14.7587C5.5482 15.8453 4.5375 17.6625 4.5375 19.7178C4.5375 23.0372 7.17219 25.7376 10.4106 25.7376C13.2597 25.7376 15.6405 23.647 16.172 20.8841C16.2834 21.3329 16.4061 21.6768 16.4842 21.8748L17.359 28.1336H2.34375V28.1334ZM10.4105 16.1001C12.3566 16.1001 13.9398 17.7229 13.9398 19.7176C13.9398 21.7123 12.3566 23.3351 10.4105 23.3351C8.46445 23.3351 6.88117 21.7123 6.88117 19.7176C6.88117 17.7229 8.46445 16.1001 10.4105 16.1001ZM7.86586 11.0894C7.86586 9.65123 9.00742 8.48112 10.4105 8.48112C11.8137 8.48112 12.9552 9.65123 12.9552 11.0894C12.9552 12.5276 11.8137 13.6977 10.4105 13.6977C9.00742 13.6977 7.86586 12.5276 7.86586 11.0894ZM37.6562 28.1334H29.22C28.2566 26.9707 25.5764 24.0362 22.5662 23.3655L21.2445 23.071L20.8924 28.1334H19.7266L18.7601 21.2051C18.7548 21.193 18.1484 19.8256 18.2839 18.3751C18.3627 17.5318 18.6806 16.8121 18.9831 16.2987L28.482 23.877C29.7517 24.89 31.4548 25.2372 33.06 24.7305L36.3377 26.0575C37.1386 26.3817 37.6562 27.1616 37.6562 28.0443V28.1334Z" fill="#ED7226"/>
</svg>
