<svg width="40" height="36" viewBox="0 0 40 36" fill="none" xmlns="http://www.w3.org/2000/svg">
<path d="M38.8281 7.41406H28.2324V5.08531C28.2324 2.47617 26.1097 0.353516 23.5006 0.353516H16.4995C13.8904 0.353516 11.7677 2.47617 11.7677 5.08531V7.41406H1.17188C0.524687 7.41406 0 7.93875 0 8.58594V29.875C0 33.0574 2.58914 35.6465 5.77148 35.6465H34.2285C37.4109 35.6465 40 33.0574 40 29.875V8.58594C40 7.93875 39.4753 7.41406 38.8281 7.41406ZM22.659 22.707C22.659 24.1732 21.4661 25.366 20 25.366C18.5339 25.366 17.341 24.1732 17.341 22.707V20.048H22.659V22.707ZM23.8309 17.7043H16.1691C15.522 17.7043 14.9973 18.229 14.9973 18.8762V21.0048C8.18258 19.5258 3.07406 15.1056 2.4168 9.75781H37.5831C36.9259 15.1056 31.8174 19.5258 25.0027 21.0049V18.8763C25.0027 18.229 24.478 17.7043 23.8309 17.7043ZM14.1113 5.08531C14.1113 3.76852 15.1827 2.69727 16.4994 2.69727H23.5005C24.8173 2.69727 25.8886 3.76852 25.8886 5.08531V7.41406H14.1112V5.08531H14.1113ZM37.6562 29.875C37.6562 31.7651 36.1185 33.3027 34.2285 33.3027H5.77148C3.88148 33.3027 2.34375 31.7651 2.34375 29.875V15.8011C3.28984 17.154 4.50969 18.4033 5.98336 19.5085C8.53703 21.4237 11.6546 22.7534 15.0476 23.4095C15.3902 25.8364 17.4799 27.7097 20 27.7097C22.5201 27.7097 24.6098 25.8364 24.9524 23.4095C28.3454 22.7534 31.4629 21.4237 34.0166 19.5085C35.4903 18.4033 36.7102 17.1539 37.6562 15.8011V29.875Z" fill="#ED7226"/>
</svg>
