<svg width="40" height="37" viewBox="0 0 40 37" fill="none" xmlns="http://www.w3.org/2000/svg">
<path d="M31.7969 17.3233C33.7354 17.3233 35.3125 15.7068 35.3125 13.7198H32.9688C32.9688 14.3821 32.443 14.921 31.7969 14.921C31.1507 14.921 30.625 14.3821 30.625 13.7198H28.2812C28.2812 15.7068 29.8584 17.3233 31.7969 17.3233Z" fill="#ED7226" fill-opacity="0.9929"/>
<path d="M25.7812 7.64572V0.00531006H0V16.1414C0 23.427 5.78273 29.3543 12.8906 29.3543C13.7203 29.3543 14.5316 29.2725 15.3181 29.1183C17.3224 33.7531 21.8532 36.9947 27.1094 36.9947C34.2173 36.9947 40 31.0674 40 23.7818V7.64572H25.7812ZM27.1094 21.94C29.6413 21.94 31.7105 24.0092 31.7916 26.5845H22.4272C22.5083 24.0092 24.5775 21.94 27.1094 21.94ZM2.34375 16.1414V2.40765H23.4375V16.1414C23.4375 22.1023 18.7062 26.9519 12.8906 26.9519C7.07508 26.9519 2.34375 22.1023 2.34375 16.1414ZM37.6562 23.7818C37.6562 29.7427 32.9249 34.5923 27.1094 34.5923C22.9214 34.5923 19.297 32.0768 17.5957 28.4429C18.4752 28.0882 19.3077 27.6373 20.081 27.1026V28.9869H34.1377V26.7417C34.1377 22.7694 30.9848 19.5376 27.1094 19.5376C26.4777 19.5376 25.8653 19.6241 25.2825 19.785C25.607 18.6272 25.7812 17.4048 25.7812 16.1414V10.0481H37.6562V23.7818Z" fill="#ED7226" fill-opacity="0.9929"/>
<path d="M21.0938 12.886H4.6875V14.5398C4.6875 19.1761 8.36742 22.948 12.8906 22.948C17.4138 22.948 21.0938 19.1761 21.0938 14.5398V12.886ZM12.8906 20.5457C9.90703 20.5457 7.43711 18.2481 7.07656 15.2884H18.7047C18.3441 18.2481 15.8742 20.5457 12.8906 20.5457Z" fill="#ED7226" fill-opacity="0.9929"/>
<path d="M8.20312 8.48175C8.8493 8.48175 9.375 9.0206 9.375 9.68292H11.7188C11.7188 7.69594 10.1416 6.07941 8.20312 6.07941C6.26461 6.07941 4.6875 7.69594 4.6875 9.68292H7.03125C7.03125 9.02052 7.55695 8.48175 8.20312 8.48175Z" fill="#ED7226" fill-opacity="0.9929"/>
<path d="M17.5781 8.48175C18.2243 8.48175 18.75 9.0206 18.75 9.68292H21.0938C21.0938 7.69594 19.5166 6.07941 17.5781 6.07941C15.6396 6.07941 14.0625 7.69594 14.0625 9.68292H16.4062C16.4062 9.02052 16.932 8.48175 17.5781 8.48175Z" fill="#ED7226" fill-opacity="0.9929"/>
</svg>
