<svg width="40" height="40" viewBox="0 0 40 40" fill="none" xmlns="http://www.w3.org/2000/svg">
<g clip-path="url(#clip0_145_4)">
<path d="M36.3684 12.5971C37.1656 11.7564 37.6562 10.6223 37.6562 9.375C37.6562 6.79031 35.5534 4.6875 32.9688 4.6875C30.3841 4.6875 28.2812 6.79031 28.2812 9.375C28.2812 10.6223 28.7719 11.7564 29.5691 12.5971C28.804 13.0216 28.1259 13.5843 27.5691 14.2517C26.8086 12.5605 25.487 11.1696 23.8399 10.312C25.1956 9.1682 25.9375 7.5625 25.9375 5.85938C25.9375 2.62008 23.2395 0 20 0C16.7607 0 14.0625 2.61992 14.0625 5.85938C14.0625 7.55875 14.8014 9.1657 16.1601 10.312C14.5129 11.1696 13.1913 12.5605 12.4309 14.2517C11.8741 13.5844 11.196 13.0216 10.4309 12.5971C11.2281 11.7564 11.7188 10.6223 11.7188 9.375C11.7188 6.79031 9.61594 4.6875 7.03125 4.6875C4.44656 4.6875 2.34375 6.79031 2.34375 9.375C2.34375 10.6223 2.83438 11.7564 3.63156 12.5971C1.46797 13.7973 0 16.1053 0 18.75V19.9219C0 30.9866 9.03109 40 20 40C31.1111 40 40 30.8351 40 19.9219V18.75C40 16.1053 38.532 13.7973 36.3684 12.5971ZM32.9688 7.03125C34.2611 7.03125 35.3125 8.08266 35.3125 9.375C35.3125 10.6673 34.2611 11.7188 32.9688 11.7188C31.6764 11.7188 30.625 10.6673 30.625 9.375C30.625 8.08266 31.6764 7.03125 32.9688 7.03125ZM28.262 21.0859C28.182 23.5918 27.8461 26.0095 27.2793 28.2031H21.1719V21.0859C22.003 21.0859 27.4366 21.0859 28.262 21.0859ZM20 2.34375C21.948 2.34375 23.5938 3.95367 23.5938 5.85938C23.5938 7.76508 21.948 9.375 20 9.375C18.052 9.375 16.4062 7.76508 16.4062 5.85938C16.4062 3.95367 18.052 2.34375 20 2.34375ZM7.03125 7.03125C8.32359 7.03125 9.375 8.08266 9.375 9.375C9.375 10.6673 8.32359 11.7188 7.03125 11.7188C5.73891 11.7188 4.6875 10.6673 4.6875 9.375C4.6875 8.08266 5.73891 7.03125 7.03125 7.03125ZM7.03125 14.0625C9.61594 14.0625 11.7188 16.1653 11.7188 18.75H2.34375C2.34375 16.1653 4.44656 14.0625 7.03125 14.0625ZM2.38328 21.0938H9.39336C9.46828 23.5751 9.78 25.9788 10.308 28.2031H4.39109C3.25711 26.0555 2.55 23.6477 2.38328 21.0938ZM5.87203 30.5469H10.9668C11.662 32.6687 12.6693 34.8578 14.0538 36.6203C10.7687 35.4366 7.93078 33.3017 5.87203 30.5469ZM18.8281 37.4552C16.2062 36.565 14.3945 33.154 13.4448 30.5469H18.8281V37.4552ZM18.8281 28.2031H12.7207C12.1539 26.0095 11.818 23.5996 11.738 21.0938C12.5634 21.0938 17.997 21.0938 18.8281 21.0938V28.2031ZM14.0625 18.75V17.5781C14.0625 14.3473 16.726 11.7188 20 11.7188C23.274 11.7188 25.9375 14.3473 25.9375 17.5781V18.75H14.0625ZM21.1719 37.4552V30.5391H26.5552C25.6055 33.1462 23.7926 36.5654 21.1719 37.4552ZM25.9462 36.6203C27.3312 34.8572 28.3384 32.6598 29.0332 30.5391H34.128C32.0691 33.2939 29.2313 35.4366 25.9462 36.6203ZM35.6089 28.2031H29.692C30.22 25.9788 30.5317 23.5673 30.6066 21.0859H37.6167C37.45 23.6399 36.7429 26.0555 35.6089 28.2031ZM28.2812 18.75C28.2812 16.1653 30.3841 14.0625 32.9688 14.0625C35.5534 14.0625 37.6562 16.1653 37.6562 18.75H28.2812Z" fill="#ED7226"/>
</g>
<defs>
<clipPath id="clip0_145_4">
<rect width="40" height="40" fill="white"/>
</clipPath>
</defs>
</svg>
