<svg width="40" height="33" viewBox="0 0 40 33" fill="none" xmlns="http://www.w3.org/2000/svg">
<path fill-rule="evenodd" clip-rule="evenodd" d="M1.4325 8.25C1.00357 8.45174 0.640906 8.77138 0.386884 9.17158C0.132862 9.57177 -0.00202942 10.036 -0.00202942 10.51C-0.00202942 10.984 0.132862 11.4482 0.386884 11.8484C0.640906 12.2486 1.00357 12.5683 1.4325 12.77L5.0075 14.4575V24.2575C5.0075 26.1125 5.61 28.1825 7.3675 29.4575C9.5825 31.0575 13.6175 33.0075 20.0175 33.0075C26.4175 33.0075 30.4425 31.045 32.6675 29.4575C34.425 28.1875 35.0275 26.1325 35.0275 24.2575V14.4575L37.5275 13.275V24.25C37.5275 24.5815 37.6592 24.8995 37.8936 25.1339C38.128 25.3683 38.446 25.5 38.7775 25.5C39.109 25.5 39.427 25.3683 39.6614 25.1339C39.8958 24.8995 40.0275 24.5815 40.0275 24.25V10.5C40.0276 10.0265 39.8933 9.56279 39.6401 9.1627C39.387 8.76262 39.0254 8.44264 38.5975 8.24L24.2975 1.49C22.961 0.857968 21.5009 0.530151 20.0225 0.530151C18.5441 0.530151 17.084 0.857968 15.7475 1.49L1.4475 8.24L1.4325 8.25ZM7.5075 24.25V15.625L15.7325 19.525C17.069 20.157 18.5291 20.4848 20.0075 20.4848C21.4859 20.4848 22.946 20.157 24.2825 19.525L32.5075 15.625V24.25C32.5075 25.64 32.0575 26.775 31.1825 27.4C29.3725 28.7075 25.8575 30.5 20.0075 30.5C14.1575 30.5 10.6325 28.72 8.8325 27.4C7.96 26.77 7.5075 25.6275 7.5075 24.25ZM16.8075 3.75C17.8077 3.27619 18.9007 3.03041 20.0075 3.03041C21.1143 3.03041 22.2073 3.27619 23.2075 3.75L37.5075 10.5L23.2075 17.25C22.2073 17.7238 21.1143 17.9696 20.0075 17.9696C18.9007 17.9696 17.8077 17.7238 16.8075 17.25L2.5075 10.5L16.8075 3.75Z" fill="#ED7226"/>
</svg>
