<svg width="40" height="41" viewBox="0 0 40 41" fill="none" xmlns="http://www.w3.org/2000/svg">
<path d="M23.1595 20.1615C23.808 19.4033 24.2024 18.4113 24.2024 17.3262C24.2024 14.9512 22.3172 13.019 20 13.019C17.6828 13.019 15.7976 14.9512 15.7976 17.3262C15.7976 18.4113 16.192 19.4033 16.8405 20.1615C15.1531 21.2443 14.0279 23.1657 14.0279 25.3522V26.7782C14.0279 27.4416 14.5526 27.9793 15.1998 27.9793H24.8003C25.4475 27.9793 25.9722 27.4416 25.9722 26.7782V25.3522C25.9721 23.1657 24.847 21.2443 23.1595 20.1615ZM18.1413 17.3262C18.1413 16.2758 18.9752 15.4212 20 15.4212C21.0248 15.4212 21.8587 16.2757 21.8587 17.3262C21.8587 18.3767 21.0248 19.2313 20 19.2313C18.9752 19.2313 18.1413 18.3767 18.1413 17.3262ZM23.6284 25.5771H16.3716V25.3523C16.3716 23.3017 17.9992 21.6334 19.9999 21.6334C21.8313 21.6334 23.6284 23.0523 23.6284 25.5771Z" fill="#ED7226"/>
<path d="M38.5103 29.7062C37.4798 28.5845 35.9014 28.3184 34.0208 28.9334C33.7263 27.9023 33.066 26.5722 31.5844 25.7284C31.0187 25.4063 30.3053 25.6151 29.9909 26.1948C29.6766 26.7748 29.8803 27.506 30.446 27.8281C30.8705 28.0699 31.1715 28.3925 31.386 28.7281C29.8428 28.4088 28.5488 28.74 27.6615 29.7059C27.1119 30.3038 26.6866 31.0921 26.4316 31.9855C26.0081 33.47 26.1054 35.1203 26.7055 36.6325C27.0502 37.5005 27.574 38.3539 28.3539 39.3183C28.9524 40.058 29.8929 40.9986 31.3386 40.9986C32.1005 40.9986 32.658 40.7391 33.0859 40.6728C33.9173 40.8017 35.7619 41.8593 37.818 39.318C38.5976 38.3539 39.1215 37.5005 39.4662 36.6325C39.4662 36.6324 39.4663 36.6323 39.4663 36.6321C40.5048 34.015 39.937 31.2583 38.5103 29.7062ZM37.2952 35.7272C37.0433 36.3614 36.636 37.0153 36.0136 37.7849C35.4203 38.5183 35.0628 38.6348 34.678 38.586C34.3129 38.5394 33.5055 38.2269 32.9962 38.2669C32.3723 38.3159 31.8605 38.5392 31.4936 38.586C31.1092 38.6349 30.7514 38.5184 30.1582 37.7852C29.5355 37.0152 29.1282 36.3612 28.8764 35.7272C28.4748 34.7154 28.4055 33.6259 28.6811 32.6598C28.8327 32.1285 29.0701 31.6767 29.3676 31.3531C29.9255 30.746 31.14 31.0786 31.8908 31.3898C32.6357 31.6987 33.4942 31.7161 34.2809 31.3898C34.8376 31.1591 36.1981 30.6935 36.8043 31.3533C37.5703 32.1865 38.0064 33.9352 37.2952 35.7272Z" fill="#ED7226"/>
<path d="M12.936 29.1779C12.7905 29.1611 9.57047 28.8042 6.98781 29.9446C4.40508 28.8042 1.18523 29.161 1.03961 29.1779C0.447422 29.2468 0 29.7604 0 30.3714V38.891C0 39.604 0.607109 40.164 1.3025 40.0846C2.9107 39.9015 4.88859 40.0848 6.47602 40.8768C6.82133 41.0486 7.21797 41.0345 7.54602 40.853C9.53359 39.7495 12.616 40.0782 12.6727 40.0846C13.3684 40.1638 13.9757 39.6065 13.9757 38.891V30.3714C13.9757 29.7604 13.5283 29.2468 12.936 29.1779ZM2.34375 37.6318V31.5147C3.26469 31.5065 4.64219 31.5926 5.81594 32.0479V38.0515C4.70898 37.7474 3.5043 37.6279 2.34375 37.6318ZM11.632 37.6318C10.713 37.6303 9.42633 37.7036 8.15977 38.0515V32.0479C9.33367 31.5926 10.7095 31.5079 11.632 31.5146V37.6318Z" fill="#ED7226"/>
<path d="M6.55781 14.7223C7.01547 15.1914 7.75742 15.1913 8.21507 14.7223L13.4637 9.34274C15.2106 7.55243 15.2109 4.65441 13.4637 2.86362C11.8002 1.1586 9.14054 1.08124 7.38648 2.63107C5.63234 1.08108 2.97289 1.15852 1.30922 2.8637C-0.433597 4.64992 -0.433597 7.55652 1.30922 9.34282L6.55781 14.7223ZM2.96656 4.56224C3.7957 3.71253 5.14453 3.71261 5.97351 4.56232L6.55781 5.16122C7.01539 5.63024 7.75742 5.63024 8.21507 5.16122L8.79945 4.56224C9.62836 3.71261 10.9773 3.71253 11.8064 4.56232C12.6372 5.41387 12.6375 6.79241 11.8064 7.6442L7.3864 12.1745L2.96648 7.64428C2.1375 6.79457 2.1375 5.41203 2.96656 4.56224Z" fill="#ED7226"/>
<path d="M39.1297 1.64343C39.0321 1.61677 39.7326 1.75498 30.7326 0.0209706C30.012 -0.117725 29.3442 0.449148 29.3442 1.2014V6.98136C28.9658 6.84026 28.5576 6.76307 28.1321 6.76307C26.1713 6.76307 24.5762 8.39802 24.5762 10.4077C24.5762 12.4172 26.1713 14.0522 28.1321 14.0522C30.0928 14.0522 31.688 12.4172 31.688 10.4077V2.64937L37.6562 3.7993V8.58292C37.2777 8.44183 36.8696 8.36463 36.4441 8.36463C34.4834 8.36463 32.8882 9.99959 32.8882 12.0092C32.8882 14.0188 34.4834 15.6537 36.4441 15.6537C38.4048 15.6537 40 14.0188 40 12.0092C40 11.9394 40.0002 2.86551 39.9996 2.79568C39.9972 2.2686 39.6523 1.78565 39.1297 1.64343ZM28.1321 11.65C27.4637 11.65 26.9199 11.0927 26.9199 10.4077C26.9199 9.7226 27.4637 9.16525 28.1321 9.16525C28.8005 9.16525 29.3442 9.7226 29.3442 10.4077C29.3441 11.0927 28.8005 11.65 28.1321 11.65ZM36.4441 13.2515C35.7757 13.2515 35.232 12.6941 35.232 12.0091C35.232 11.3241 35.7757 10.7667 36.4441 10.7667C37.1125 10.7667 37.6562 11.3241 37.6562 12.0091C37.6562 12.6942 37.1125 13.2515 36.4441 13.2515Z" fill="#ED7226"/>
<path d="M17.3594 3.95553C20.1244 3.49396 23.0593 3.7555 25.8034 4.82414C26.4085 5.05965 27.0852 4.74783 27.3151 4.12786C27.5448 3.50774 27.2408 2.8141 26.6358 2.57843C24.5184 1.75403 22.2858 1.33594 20 1.33594C18.9864 1.33594 17.9712 1.41962 16.9827 1.58458C16.3439 1.69116 15.9104 2.30841 16.0144 2.96312C16.1184 3.61784 16.7203 4.06196 17.3594 3.95553Z" fill="#ED7226"/>
<path d="M23.6255 36.847C21.6078 37.3152 19.4402 37.3979 17.2932 37.0315C16.6549 36.9224 16.0512 37.3646 15.9448 38.0189C15.8384 38.6733 16.2698 39.292 16.9082 39.401C19.3225 39.813 21.7968 39.7344 24.143 39.1899C24.7742 39.0435 25.1701 38.4002 25.0272 37.7532C24.8844 37.1063 24.2566 36.7009 23.6255 36.847Z" fill="#ED7226"/>
<path d="M3.41687 14.5547C2.79288 14.3782 2.14749 14.753 1.97515 15.3924C1.52921 17.0462 1.30304 18.7643 1.30304 20.4992C1.30304 22.4741 1.59531 24.4216 2.17179 26.2876C2.36734 26.9206 3.02663 27.2703 3.64273 27.07C4.25968 26.8698 4.60148 26.1948 4.40616 25.5624C3.90226 23.9313 3.64671 22.2278 3.64671 20.4992C3.64671 18.9805 3.84429 17.4777 4.23413 16.0324C4.40663 15.3929 4.0407 14.7314 3.41687 14.5547Z" fill="#ED7226"/>
<path d="M36.5195 26.6276C37.1414 26.8112 37.7908 26.4431 37.9698 25.8057C38.6384 23.4258 38.8293 20.9763 38.6117 18.6647C38.5496 18.0045 37.9777 17.5216 37.3328 17.5845C36.6886 17.6482 36.2167 18.2351 36.2788 18.8953C36.468 20.9069 36.3048 23.0505 35.7176 25.1411C35.5386 25.7785 35.8975 26.444 36.5195 26.6276Z" fill="#ED7226"/>
</svg>
