<svg width="36" height="41" viewBox="0 0 36 41" fill="none" xmlns="http://www.w3.org/2000/svg">
<path d="M34.4947 6.46626C31.7158 6.35654 29.5117 4.03653 29.4769 1.18455L29.4624 0H6.53756L6.52313 1.18455C6.48825 4.03653 4.28421 6.35654 1.5053 6.46626L0.380066 6.51072V16.1718C0.380066 24.8991 4.79478 32.9964 11.9014 37.3037L18 41L24.0986 37.3037C31.2053 32.9965 35.62 24.8992 35.62 16.1718V6.51072L34.4947 6.46626ZM33.2794 16.1718C33.2794 24.055 29.305 31.361 22.9073 35.2386L18 38.2128L13.0927 35.2386C6.69501 31.361 2.72065 24.055 2.72065 16.1718V8.73324C5.82506 8.13065 8.24343 5.59336 8.76119 2.39918H27.2387C27.7566 5.59328 30.1749 8.13065 33.2794 8.73324V16.1718Z" fill="#ED7226"/>
<path d="M19.1704 13.7407H16.8297V17.6108H13.0539V20.01H16.8297V23.8802H19.1704V20.01H22.9461V17.6108H19.1704V13.7407Z" fill="#ED7226"/>
<path d="M18 8.31714C12.3551 8.31714 7.76266 13.0244 7.76266 18.8104C7.76266 24.5964 12.3551 29.3037 18 29.3037C23.6449 29.3037 28.2374 24.5964 28.2374 18.8104C28.2374 13.0244 23.6449 8.31714 18 8.31714ZM18 26.9046C13.6458 26.9046 10.1033 23.2736 10.1033 18.8105C10.1033 14.3474 13.6458 10.7163 18 10.7163C22.3543 10.7163 25.8967 14.3473 25.8967 18.8104C25.8967 23.2735 22.3543 26.9046 18 26.9046Z" fill="#ED7226"/>
</svg>
