<svg width="40" height="41" viewBox="0 0 40 41" fill="none" xmlns="http://www.w3.org/2000/svg">
<g clip-path="url(#clip0_145_18)">
<path d="M39.5348 10.0128C39.242 9.78582 38.8623 9.71255 38.5088 9.81505L21.9464 14.6197C21.4419 14.7661 21.0937 15.2381 21.0937 15.7755V32.037C20.4036 31.6268 19.6034 31.3907 18.7499 31.3907C16.1653 31.3907 14.0624 33.546 14.0624 36.1953C14.0624 38.8446 16.1653 41 18.7499 41C21.3346 41 23.4374 38.8446 23.4374 36.1953C23.4374 36.0706 23.4374 21.4885 23.4374 21.4885L37.6561 17.3637V27.2324C36.966 26.8221 36.1659 26.586 35.3124 26.586C32.7277 26.586 30.6249 28.7414 30.6249 31.3907C30.6249 34.0399 32.7277 36.1953 35.3124 36.1953C37.897 36.1953 39.9998 34.0399 39.9998 31.3907C39.9998 31.2841 39.9998 10.9708 39.9998 10.9708C39.9999 10.5944 39.8277 10.2398 39.5348 10.0128ZM18.75 38.5977C17.4577 38.5977 16.4063 37.52 16.4063 36.1953C16.4063 34.8707 17.4577 33.793 18.75 33.793C20.0423 33.793 21.0937 34.8707 21.0937 36.1953C21.0937 37.52 20.0423 38.5977 18.75 38.5977ZM35.3124 33.793C34.0201 33.793 32.9687 32.7153 32.9687 31.3907C32.9687 30.066 34.0201 28.9883 35.3124 28.9883C36.6048 28.9883 37.6562 30.066 37.6562 31.3907C37.6562 32.7153 36.6048 33.793 35.3124 33.793ZM37.6562 14.8672L23.4375 18.9919V16.6839L37.6562 12.5592V14.8672Z" fill="#ED7226"/>
<path d="M16.3519 8.52673C13.7519 6.57315 11.8471 4.63831 10.5288 2.61146L9.17815 0.534967C8.89167 0.0945393 8.35768 -0.101731 7.86354 0.0516176C7.36933 0.205047 7.03128 0.67198 7.03128 1.20129V20.0253C6.34121 19.6151 5.54105 19.379 4.68754 19.379C2.10287 19.379 6.10352e-05 21.5343 6.10352e-05 24.1836C6.10352e-05 26.8329 2.10287 28.9883 4.68754 28.9883C7.27222 28.9883 9.37502 26.8329 9.37502 24.1836V5.0765C10.7756 6.92622 12.6163 8.69874 14.9662 10.4644C15.8679 11.1418 16.4062 12.2292 16.4062 13.3732C16.4062 15.3602 14.8291 16.9767 12.8906 16.9767C12.2434 16.9767 11.7188 17.5145 11.7188 18.1779C11.7188 18.8412 12.2434 19.379 12.8906 19.379C16.1215 19.379 18.75 16.6847 18.75 13.3731C18.75 11.4667 17.8534 9.65495 16.3519 8.52673ZM4.68754 26.586C3.3952 26.586 2.3438 25.5083 2.3438 24.1836C2.3438 22.859 3.3952 21.7813 4.68754 21.7813C5.97988 21.7813 7.03128 22.859 7.03128 24.1836C7.03128 25.5083 5.97988 26.586 4.68754 26.586Z" fill="#ED7226"/>
</g>
<defs>
<clipPath id="clip0_145_18">
<rect width="40" height="41" fill="white"/>
</clipPath>
</defs>
</svg>
