<svg width="40" height="40" viewBox="0 0 40 40" fill="none" xmlns="http://www.w3.org/2000/svg">
<path d="M36.4415 3.85735C35.8895 3.20829 35.0846 2.83618 34.2331 2.83618H31.4383V1.96196C31.4383 0.880158 30.5581 0 29.4764 0H10.5238C9.44197 0 8.56197 0.880158 8.56197 1.96188V2.8361H5.76689C4.9154 2.8361 4.1104 3.20829 3.55852 3.85727C3.01227 4.49954 2.77618 5.34314 2.91094 6.17165C3.64532 10.6873 6.48712 14.6766 10.5203 16.8648C10.8888 17.7508 11.3062 18.59 11.771 19.3719C13.2555 21.87 15.101 23.5964 17.1325 24.4313C17.3383 26.5129 15.9532 28.4848 13.8673 28.9547C13.8628 28.9558 13.8597 28.9573 13.8553 28.9583C13.4482 29.0556 13.1452 29.4209 13.1452 29.8578V34.1049H11.4275C9.89611 34.1049 8.65025 35.3508 8.65025 36.8822V39.0742C8.65025 39.5855 9.0647 40 9.57603 40H30.5126C31.0239 40 31.4383 39.5855 31.4383 39.0742V36.8822C31.4383 35.3508 30.1925 34.1049 28.6611 34.1049H26.9433V29.8579C26.9433 29.4201 26.6391 29.0543 26.2309 28.9579C26.2271 28.9569 26.2234 28.9557 26.2196 28.9547C24.1179 28.4817 22.7302 26.4899 22.9577 24.3927C24.9536 23.5443 26.7668 21.8332 28.2295 19.3721C28.6943 18.5901 29.1115 17.7508 29.4801 16.8646C33.5131 14.6764 36.3548 10.6871 37.0891 6.17165C37.2239 5.34314 36.9878 4.49962 36.4415 3.85735ZM4.73845 5.87439C4.69032 5.57853 4.77212 5.28814 4.96884 5.05673C5.16845 4.82204 5.45923 4.68751 5.76681 4.68751H8.56189V6.39079C8.56189 9.06158 8.90275 11.6486 9.54877 14.0145C7.01001 12.0083 5.26204 9.094 4.73845 5.87439ZM28.6611 35.9566C29.1715 35.9566 29.5869 36.3719 29.5869 36.8823V38.1486H10.5017V36.8823C10.5017 36.3719 10.9171 35.9566 11.4275 35.9566H28.6611ZM25.0917 30.7837V34.105H14.9969V30.7837H25.0917ZM17.4248 28.9322C17.6536 28.6803 17.8628 28.4072 18.05 28.115C18.6669 27.151 18.9907 26.0558 19.0053 24.9373C19.3341 24.9821 19.666 25.0061 20.0007 25.0061C20.3648 25.0061 20.7256 24.9781 21.0829 24.9251C21.1039 26.4282 21.6889 27.8509 22.6726 28.9321H17.4248V28.9322ZM29.5867 6.39087C29.5867 10.9517 28.5394 15.226 26.6377 18.426C24.8258 21.4752 22.4686 23.1545 20.0005 23.1545C17.532 23.1545 15.1746 21.4753 13.3625 18.4261C11.4608 15.226 10.4135 10.9518 10.4135 6.39103V1.96188C10.4135 1.90094 10.463 1.85149 10.5238 1.85149H29.4762C29.5372 1.85149 29.5867 1.90102 29.5867 1.96188V6.39087ZM35.2616 5.87439C34.738 9.09377 32.9902 12.008 30.4515 14.0143C31.0975 11.6485 31.4383 9.06158 31.4383 6.39087V4.68759H34.2331C34.5408 4.68759 34.8316 4.8222 35.0311 5.05681C35.2278 5.28814 35.3097 5.57853 35.2616 5.87439Z" fill="#ED7226"/>
<path d="M25.6204 9.50457C25.5115 9.16957 25.2218 8.92535 24.8731 8.87457L22.0795 8.46863L20.8302 5.93722C20.6742 5.62128 20.3524 5.4212 20 5.4212C19.6476 5.4212 19.3258 5.62128 19.1699 5.93722L17.9206 8.46863L15.127 8.87457C14.7782 8.9252 14.4885 9.16949 14.3796 9.50465C14.2708 9.83988 14.3616 10.2077 14.6139 10.4537L16.6354 12.4241L16.1582 15.2064C16.0985 15.5537 16.2413 15.9047 16.5264 16.1118C16.8114 16.319 17.1895 16.3462 17.5014 16.1823L20 14.8688L22.4986 16.1823C22.6341 16.2535 22.782 16.2886 22.9293 16.2886C23.1211 16.2886 23.3122 16.229 23.4735 16.1118C23.7586 15.9046 23.9014 15.5536 23.8418 15.2063L23.3645 12.424L25.386 10.4536C25.6385 10.2077 25.7293 9.83981 25.6204 9.50457ZM21.7238 11.4379C21.5056 11.6506 21.406 11.957 21.4575 12.2574L21.6999 13.6707L20.4307 13.0034C20.296 12.9325 20.1479 12.8972 20 12.8972C19.852 12.8972 19.704 12.9326 19.5692 13.0034L18.3 13.6707L18.5424 12.2574C18.5939 11.9571 18.4943 11.6507 18.2761 11.4379L17.2495 10.4372L18.6684 10.2309C18.9699 10.1872 19.2306 9.9977 19.3654 9.72449L20 8.43871L20.6346 9.72449C20.7695 9.9977 21.03 10.1871 21.3316 10.2309L22.7505 10.4372L21.7238 11.4379Z" fill="#ED7226"/>
</svg>
