<svg width="40" height="41" viewBox="0 0 40 41" fill="none" xmlns="http://www.w3.org/2000/svg">
<path d="M38.6728 33.0609C38.3581 32.7383 38.005 32.4694 37.6245 32.2577C37.8499 31.735 37.9694 31.1656 37.9694 30.5771C37.9694 29.4662 37.5474 28.4218 36.781 27.6362L34.3016 25.0947C34.7464 23.6433 34.9865 22.0999 34.9865 20.5C34.9865 18.9001 34.7464 17.3567 34.3016 15.9053L36.7811 13.3637C37.5474 12.5782 37.9695 11.5338 37.9695 10.4229C37.9695 9.83433 37.8499 9.26484 37.6246 8.74227C38.0051 8.53052 38.3582 8.26167 38.6729 7.93908C40.4424 6.12536 40.4424 3.17409 38.6729 1.36029C36.9034 -0.453349 34.0241 -0.453349 32.2546 1.36029C31.9361 1.6868 31.6758 2.05056 31.472 2.43746C29.9838 1.76505 28.1795 2.0516 26.9622 3.29935L24.4827 5.84089C23.0667 5.38496 21.5609 5.13878 20 5.13878C18.4392 5.13878 16.9334 5.38496 15.5174 5.84089L13.0379 3.29935C11.8206 2.0516 10.0163 1.76513 8.52821 2.43754C8.32436 2.05056 8.0641 1.6868 7.74555 1.36029C5.97607 -0.453349 3.09678 -0.453349 1.32729 1.36029C-0.442268 3.17401 -0.442268 6.12528 1.32729 7.93908C1.64201 8.26167 1.9951 8.53052 2.37561 8.74227C2.15019 9.26492 2.03065 9.83433 2.03065 10.4229C2.03065 11.5338 2.45272 12.5782 3.21906 13.3637L5.69861 15.9053C5.2538 17.3567 5.01362 18.9001 5.01362 20.5C5.01362 22.0999 5.2538 23.6433 5.69861 25.0947L3.21906 27.6363C2.45272 28.4219 2.03065 29.4663 2.03065 30.5772C2.03065 31.1657 2.15027 31.7352 2.37561 32.2578C1.9951 32.4695 1.64201 32.7384 1.32729 33.061C-0.442268 34.8747 -0.442268 37.8259 1.32729 39.6397C2.21207 40.5466 3.37423 41 4.53638 41C5.69861 41 6.86077 40.5466 7.74555 39.6397C8.0641 39.3132 8.32436 38.9495 8.52821 38.5626C9.04936 38.798 9.60887 38.9169 10.1689 38.9169C11.2079 38.9169 12.247 38.5115 13.038 37.7007L15.5175 35.1591C16.9335 35.6151 18.4393 35.8613 20.0001 35.8613C21.561 35.8613 23.0668 35.6151 24.4828 35.1591L26.9623 37.7007C27.7533 38.5115 28.7923 38.9169 29.8313 38.9169C30.3912 38.9169 30.9508 38.798 31.472 38.5626C31.6758 38.9496 31.9361 39.3133 32.2546 39.6398C33.1394 40.5466 34.3016 41.0001 35.4637 41.0001C36.6259 41.0001 37.7881 40.5466 38.6729 39.6398C40.4424 37.8259 40.4424 34.8747 38.6728 33.0609ZM33.912 3.05917C34.3398 2.62061 34.9017 2.40142 35.4637 2.40142C36.0256 2.40142 36.5877 2.62069 37.0154 3.05917C37.871 3.9362 37.871 5.36318 37.0154 6.24021C36.6009 6.66506 36.0499 6.89908 35.4637 6.89908C34.8775 6.89908 34.3265 6.66506 33.912 6.24021C33.0563 5.36318 33.0563 3.9362 33.912 3.05917ZM28.6195 4.99822C29.2527 4.34928 30.2617 4.31637 30.9342 4.89763C30.9914 6.00491 31.4311 7.09513 32.2545 7.93908C33.055 8.75965 34.1021 9.23568 35.2245 9.29503C35.4836 9.61081 35.6254 10.0055 35.6254 10.4229C35.6254 10.892 35.4472 11.3331 35.1236 11.6649L33.3364 13.4968C31.9025 10.6395 29.62 8.29995 26.8323 6.8302L28.6195 4.99822ZM2.98458 3.05917C3.41236 2.62069 3.97429 2.40142 4.53623 2.40142C5.09816 2.40142 5.66017 2.62069 6.08795 3.05917C6.94359 3.9362 6.94359 5.36318 6.08795 6.24021C5.67353 6.66506 5.12246 6.89908 4.5363 6.89908C3.95015 6.89908 3.39907 6.66506 2.98466 6.24021C2.12894 5.36318 2.12894 3.9362 2.98458 3.05917ZM4.87634 11.6649C4.55263 11.3331 4.37441 10.8921 4.37441 10.4229C4.37441 10.0055 4.51622 9.61081 4.77539 9.29503C5.89778 9.23568 6.94476 8.75965 7.74531 7.93908C8.56868 7.09513 9.00842 6.00491 9.06561 4.89763C9.7381 4.31653 10.7471 4.3492 11.3803 4.99822L13.1676 6.8302C10.38 8.29995 8.09746 10.6395 6.66356 13.4968L4.87634 11.6649ZM6.08795 37.9408C5.23239 38.8177 3.84021 38.8178 2.98458 37.9408C2.12894 37.0638 2.12894 35.6368 2.98458 34.7598C3.399 34.3349 3.95007 34.1009 4.53623 34.1009C5.12238 34.1009 5.67345 34.3349 6.08795 34.7598C6.94359 35.6368 6.94359 37.0638 6.08795 37.9408ZM11.3804 36.0017C10.7472 36.6508 9.73818 36.6836 9.06569 36.1023C9.00857 34.995 8.56884 33.9048 7.74547 33.0609C6.94492 32.2403 5.89785 31.7643 4.77547 31.7049C4.5163 31.3892 4.37449 30.9945 4.37449 30.5771C4.37449 30.1079 4.55271 29.6669 4.87634 29.3351L6.66356 27.5031C8.09746 30.3604 10.38 32.7 13.1676 34.1698L11.3804 36.0017ZM7.35738 20.4999C7.35738 13.3545 13.0288 7.54129 20 7.54129C26.9712 7.54129 32.6425 13.3546 32.6425 20.4999C32.6425 27.6453 26.9711 33.4586 20 33.4586C13.0288 33.4586 7.35738 27.6453 7.35738 20.4999ZM28.6195 36.0017L26.8322 34.1698C29.6199 32.7 31.9023 30.3604 33.3363 27.5032L35.1235 29.3351C35.4472 29.6669 35.6254 30.1078 35.6254 30.5771C35.6254 30.9945 35.4836 31.3892 35.2245 31.7049C34.1021 31.7643 33.0551 32.2403 32.2545 33.0609C31.4312 33.9048 30.9914 34.995 30.9342 36.1023C30.2617 36.6835 29.2527 36.6507 28.6195 36.0017ZM37.0154 37.9408C36.1598 38.8177 34.7675 38.8177 33.912 37.9408C33.0563 37.0638 33.0563 35.6368 33.912 34.7598C34.3264 34.3349 34.8775 34.1009 35.4636 34.1009C36.0498 34.1009 36.6009 34.3349 37.0153 34.7598C37.8709 35.6368 37.8709 37.0638 37.0154 37.9408Z" fill="#ED7226"/>
</svg>
