<svg width="196" height="57" viewBox="0 0 196 57" fill="none" xmlns="http://www.w3.org/2000/svg">
<g clip-path="url(#clip0_1973_29818)">
<path fill-rule="evenodd" clip-rule="evenodd" d="M11.0938 55.008L11.102 55.0081C11.599 55.018 12.0867 55.0236 12.5857 55.0236L181.612 55.0266L183.412 55.0236H183.414C183.901 55.0236 184.404 55.018 184.885 55.0082L184.895 55.008C185.892 54.9973 186.887 54.9209 187.87 54.7795C188.748 54.6481 189.596 54.4015 190.384 54.0499C191.155 53.7043 191.852 53.2545 192.45 52.7214L192.458 52.714C193.057 52.1912 193.552 51.5943 193.93 50.9483C194.311 50.281 194.57 49.5719 194.702 48.8459L194.704 48.8389C194.862 48.0015 194.951 47.1555 194.969 46.3076C194.975 45.8689 194.975 45.4414 194.975 44.9651V44.9515L194.976 44.938C194.989 44.4306 194.989 43.9252 194.989 43.391V12.7519C194.989 12.2234 194.989 11.7135 194.976 11.1794L194.975 11.1665V11.1536C194.975 10.7111 194.975 10.2743 194.971 9.86881C194.952 9.00432 194.862 8.14182 194.701 7.28801L194.7 7.28567C194.566 6.56862 194.31 5.8683 193.934 5.20853C193.168 3.89397 191.936 2.79459 190.387 2.09033C189.596 1.74109 188.748 1.49574 187.869 1.36413C186.892 1.22299 185.904 1.14687 184.913 1.1365L184.911 1.13648L183.405 1.11796H12.5923L11.0983 1.13577C10.0976 1.14669 9.0985 1.22356 8.1113 1.36566C7.24257 1.49551 6.40388 1.739 5.62334 2.0861C4.85041 2.43514 4.15046 2.88599 3.54698 3.41875L3.54296 3.42229C2.94091 3.94819 2.44632 4.55038 2.07348 5.2023L2.07241 5.20418C1.68989 5.86986 1.42827 6.57742 1.29252 7.30217C1.13343 8.14767 1.04754 9.0029 1.03572 9.85893L1.03558 9.86914L1.03525 9.87934C1.03073 10.0176 1.02476 10.3353 1.01982 10.6285C1.01739 10.773 1.01525 10.9082 1.01373 11.0074L1.01141 11.1615V44.9649L1.01362 45.1221C1.01507 45.2229 1.01711 45.3604 1.01948 45.5074C1.0243 45.8064 1.03025 46.1296 1.03511 46.2721L1.03548 46.2828L1.03563 46.2935C1.04797 47.1511 1.13423 48.007 1.29383 48.854C1.4292 49.5761 1.69055 50.2819 2.07255 50.9449L2.07357 50.9467C2.44722 51.598 2.9439 52.1991 3.54898 52.7225L3.55901 52.7312C4.15626 53.2617 4.8521 53.7091 5.62214 54.0524C6.40547 54.4013 7.24682 54.6471 8.11841 54.7796C9.10222 54.9202 10.0968 54.9966 11.0938 55.008ZM7.97575 55.8149C7.01765 55.6696 6.08952 55.3992 5.22196 55.0128C4.36235 54.6296 3.57833 54.127 2.89991 53.5245C2.21167 52.9291 1.63868 52.2385 1.20364 51.4801C0.763816 50.7167 0.459429 49.8985 0.301086 49.054C0.130089 48.1465 0.0375724 47.2288 0.0243342 46.309C0.0137961 46.0003 0 44.9723 0 44.9723V11.1536C0 11.1536 0.0146937 10.1414 0.0244174 9.84401C0.0370928 8.92563 0.129071 8.00943 0.299557 7.10335C0.458192 6.25647 0.762815 5.4359 1.20288 4.67007C1.63632 3.91219 2.20612 3.22107 2.89022 2.62351C3.57354 2.02026 4.36008 1.51517 5.22115 1.12664C6.08671 0.74144 7.01309 0.473003 7.96925 0.330321C9.00012 0.181824 10.0422 0.101539 11.0867 0.0901408L12.5865 0.0722656H183.405L184.923 0.0908581C185.958 0.10169 186.991 0.181259 188.012 0.328886C188.978 0.473358 189.914 0.743668 190.789 1.13093C192.514 1.91393 193.918 3.15271 194.804 4.67364C195.237 5.43419 195.537 6.24806 195.693 7.08762C195.866 8.00115 195.962 8.92454 195.982 9.85045C195.987 10.265 195.987 10.7104 195.987 11.1536C196 11.7019 196 12.2239 196 12.7501V43.3929C196 43.9241 196 44.4425 195.987 44.9651C195.987 45.4412 195.987 45.8773 195.98 46.3261C195.961 47.2355 195.866 48.1424 195.696 49.0396C195.541 49.8903 195.239 50.7149 194.799 51.4845C194.361 52.2346 193.791 52.9193 193.111 53.5131C192.432 54.1189 191.646 54.6243 190.785 55.01C189.912 55.3994 188.977 55.6708 188.012 55.8149C186.985 55.9627 185.946 56.0425 184.905 56.0537C184.418 56.0636 183.909 56.0693 183.414 56.0693L181.612 56.0723L12.5857 56.0693C12.0792 56.0693 11.585 56.0636 11.0826 56.0537C10.0417 56.0417 9.00325 55.9619 7.97575 55.8149Z" fill="white"/>
<path d="M49.5896 27.9098C49.6052 26.6391 49.9287 25.3932 50.5299 24.2881C51.131 23.1829 51.9903 22.2543 53.0278 21.5888C52.3687 20.6066 51.4992 19.7983 50.4884 19.2281C49.4775 18.6579 48.3532 18.3415 47.2046 18.304C44.7546 18.0356 42.3794 19.8337 41.1309 19.8337C39.8582 19.8337 37.936 18.3306 35.866 18.375C34.5271 18.4202 33.2222 18.8264 32.0785 19.5542C30.9348 20.282 29.9913 21.3065 29.3399 22.5279C26.5182 27.6255 28.623 35.1172 31.3259 39.2377C32.6783 41.2554 34.2588 43.5092 36.3269 43.4293C38.3507 43.3417 39.1065 42.0828 41.5493 42.0828C43.9695 42.0828 44.6786 43.4293 46.7887 43.3785C48.9603 43.3417 50.3284 41.3518 51.6334 39.315C52.6051 37.8774 53.3528 36.2884 53.8488 34.6071C52.5872 34.0503 51.5105 33.1183 50.7531 31.9273C49.9957 30.7364 49.591 29.3391 49.5896 27.9098Z" fill="white"/>
<path d="M45.6036 15.5934C46.7876 14.1103 47.371 12.2039 47.2297 10.2793C45.4208 10.4775 43.7498 11.3796 42.5498 12.8059C41.9631 13.5026 41.5137 14.3132 41.2274 15.1912C40.941 16.0693 40.8234 16.9976 40.8811 17.9232C41.7859 17.9329 42.681 17.7283 43.499 17.3247C44.317 16.9211 45.0366 16.3292 45.6036 15.5934Z" fill="white"/>
<path d="M73.8693 38.5226H67.2282L65.6333 43.4363H62.8204L69.1108 25.2567H72.0333L78.3237 43.4363H75.4628L73.8693 38.5226ZM67.916 36.2551H73.1802L70.5851 28.2804H70.5124L67.916 36.2551Z" fill="white"/>
<path d="M91.9088 36.8095C91.9088 40.9283 89.796 43.5746 86.6077 43.5746C85.8 43.6187 84.9968 43.4246 84.2899 43.0145C83.5831 42.6044 83.0012 41.9948 82.6109 41.2557H82.5506V47.8207H79.9432V30.1815H82.467V32.3861H82.515C82.9232 31.6505 83.5149 31.0441 84.2271 30.6315C84.9394 30.2189 85.7455 30.0155 86.5597 30.0429C89.7837 30.0429 91.9088 32.702 91.9088 36.8095ZM89.2288 36.8095C89.2288 34.126 87.8997 32.3618 85.8719 32.3618C83.8797 32.3618 82.5397 34.1632 82.5397 36.8095C82.5397 39.4801 83.8797 41.2686 85.8719 41.2686C87.8997 41.2686 89.2288 39.5173 89.2288 36.8095Z" fill="white"/>
<path d="M105.891 36.8095C105.891 40.9283 103.777 43.5746 100.589 43.5746C99.7811 43.6187 98.9779 43.4246 98.271 43.0145C97.5642 42.6044 96.9823 41.9948 96.592 41.2557H96.5317V47.8207H93.9243V30.1815H96.4481V32.3861H96.4961C96.9043 31.6505 97.496 31.0441 98.2082 30.6315C98.9205 30.2189 99.7266 30.0155 100.541 30.0429C103.765 30.0429 105.891 32.702 105.891 36.8095ZM103.21 36.8095C103.21 34.126 101.881 32.3618 99.853 32.3618C97.8608 32.3618 96.5208 34.1632 96.5208 36.8095C96.5208 39.4801 97.8608 41.2686 99.853 41.2686C101.881 41.2686 103.21 39.5173 103.21 36.8095Z" fill="white"/>
<path d="M115.13 38.371C115.323 40.1738 117.001 41.3575 119.295 41.3575C121.493 41.3575 123.074 40.1738 123.074 38.5483C123.074 37.1372 122.12 36.2923 119.862 35.7132L117.604 35.1456C114.405 34.3393 112.92 32.7781 112.92 30.2448C112.92 27.1081 115.539 24.9536 119.258 24.9536C122.941 24.9536 125.465 27.1081 125.55 30.2448H122.918C122.76 28.4305 121.323 27.3354 119.222 27.3354C117.122 27.3354 115.685 28.4434 115.685 30.056C115.685 31.3413 116.603 32.0976 118.848 32.6766L120.768 33.1684C124.343 34.0505 125.826 35.5488 125.826 38.2079C125.826 41.6091 123.231 43.7393 119.102 43.7393C115.238 43.7393 112.629 41.6591 112.46 38.3709L115.13 38.371Z" fill="white"/>
<path d="M131.456 27.0463V30.183H133.872V32.3375H131.456V39.6445C131.456 40.7797 131.94 41.3087 133.002 41.3087C133.289 41.3034 133.575 41.2824 133.86 41.2457V43.3873C133.382 43.4804 132.897 43.5226 132.411 43.5132C129.84 43.5132 128.837 42.5052 128.837 39.9347V32.3375H126.99V30.183H128.837V27.0463H131.456Z" fill="white"/>
<path d="M135.27 36.8109C135.27 32.6406 137.624 30.02 141.294 30.02C144.977 30.02 147.32 32.6405 147.32 36.8109C147.32 40.9927 144.99 43.6018 141.294 43.6018C137.6 43.6018 135.27 40.9927 135.27 36.8109ZM144.663 36.8109C144.663 33.9502 143.407 32.2617 141.294 32.2617C139.181 32.2617 137.925 33.963 137.925 36.8109C137.925 39.6831 139.181 41.3587 141.294 41.3587C143.407 41.3587 144.663 39.6831 144.663 36.8109Z" fill="white"/>
<path d="M149.47 30.1814H151.957V32.4373H152.017C152.185 31.7328 152.581 31.1101 153.137 30.674C153.694 30.2379 154.377 30.015 155.072 30.0427C155.373 30.0416 155.672 30.0756 155.966 30.1442V32.689C155.586 32.568 155.191 32.5125 154.794 32.5246C154.415 32.5085 154.038 32.5782 153.687 32.7289C153.337 32.8795 153.021 33.1075 152.763 33.3972C152.505 33.6869 152.31 34.0314 152.192 34.4072C152.073 34.783 152.034 35.181 152.077 35.574V43.4358H149.47L149.47 30.1814Z" fill="white"/>
<path d="M167.988 39.5444C167.637 41.9506 165.391 43.6018 162.518 43.6018C158.823 43.6018 156.529 41.0184 156.529 36.8738C156.529 32.7164 158.835 30.02 162.408 30.02C165.923 30.02 168.133 32.5391 168.133 36.5579V37.49H159.161V37.6544C159.12 38.1422 159.178 38.6336 159.333 39.096C159.487 39.5584 159.734 39.9812 160.058 40.3363C160.381 40.6913 160.773 40.9706 161.207 41.1555C161.642 41.3404 162.109 41.4267 162.578 41.4087C163.194 41.469 163.813 41.3201 164.341 40.9842C164.87 40.6483 165.28 40.1433 165.512 39.5444L167.988 39.5444ZM159.173 35.5886H165.524C165.548 35.15 165.484 34.711 165.337 34.2994C165.19 33.8877 164.963 33.5121 164.671 33.1962C164.378 32.8804 164.026 32.631 163.637 32.4638C163.248 32.2966 162.829 32.2151 162.408 32.2246C161.984 32.2219 161.563 32.307 161.17 32.475C160.777 32.643 160.42 32.8905 160.119 33.2033C159.818 33.516 159.58 33.8878 159.418 34.2972C159.255 34.7066 159.172 35.1455 159.173 35.5886Z" fill="white"/>
<path d="M67.5897 11.5732C68.1364 11.5323 68.6849 11.6185 69.1958 11.8255C69.7066 12.0326 70.1671 12.3554 70.5439 12.7706C70.9208 13.1858 71.2046 13.6831 71.3749 14.2266C71.5453 14.7702 71.5979 15.3464 71.5289 15.9137C71.5289 18.7044 70.0834 20.3085 67.5897 20.3085H64.5658V11.5732H67.5897ZM65.8661 19.0732H67.4445C67.8351 19.0975 68.226 19.0307 68.5888 18.8776C68.9515 18.7244 69.2769 18.4888 69.5414 18.1878C69.8059 17.8869 70.0027 17.5282 70.1176 17.1379C70.2324 16.7476 70.2624 16.3354 70.2054 15.9315C70.2583 15.5291 70.2252 15.1196 70.1086 14.7321C69.992 14.3446 69.7947 13.9889 69.5308 13.6903C69.267 13.3918 68.9431 13.1578 68.5824 13.0052C68.2217 12.8526 67.8331 12.7852 67.4445 12.8077H65.8661V19.0732Z" fill="white"/>
<path d="M72.9981 17.0106C72.9584 16.5774 73.0059 16.1403 73.1375 15.7274C73.2692 15.3144 73.4821 14.9348 73.7626 14.6127C74.0432 14.2907 74.3851 14.0334 74.7665 13.8573C75.1479 13.6812 75.5604 13.5902 75.9775 13.5902C76.3946 13.5902 76.8071 13.6812 77.1885 13.8573C77.5699 14.0334 77.9118 14.2907 78.1924 14.6127C78.4729 14.9348 78.6858 15.3144 78.8175 15.7274C78.9491 16.1403 78.9966 16.5774 78.9569 17.0106C78.9974 17.4443 78.9505 17.882 78.8191 18.2956C78.6878 18.7092 78.475 19.0896 78.1944 19.4123C77.9138 19.735 77.5716 19.9928 77.1898 20.1693C76.808 20.3457 76.3951 20.4369 75.9775 20.4369C75.5599 20.4369 75.147 20.3457 74.7652 20.1693C74.3834 19.9928 74.0412 19.735 73.7606 19.4123C73.48 19.0896 73.2672 18.7092 73.1359 18.2956C73.0045 17.882 72.9576 17.4443 72.9981 17.0106ZM77.6744 17.0106C77.6744 15.5817 77.0592 14.7461 75.9796 14.7461C74.8958 14.7461 74.2861 15.5817 74.2861 17.0107C74.2861 18.4511 74.8958 19.2803 75.9796 19.2803C77.0593 19.2802 77.6744 18.4453 77.6744 17.0106Z" fill="white"/>
<path d="M86.8771 20.3085H85.5837L84.278 15.4534H84.1793L82.879 20.3085H81.5979L79.8564 13.7164H81.1211L82.2529 18.7466H82.346L83.6449 13.7164H84.8411L86.14 18.7466H86.2387L87.3649 13.7164H88.6118L86.8771 20.3085Z" fill="white"/>
<path d="M90.0772 13.7158H91.2775V14.763H91.3706C91.5287 14.3869 91.7953 14.0716 92.1332 13.8611C92.4712 13.6506 92.8637 13.5553 93.256 13.5886C93.5634 13.5644 93.8721 13.6128 94.1591 13.7301C94.4462 13.8473 94.7043 14.0305 94.9143 14.266C95.1243 14.5014 95.2808 14.7832 95.3723 15.0904C95.4638 15.3975 95.4879 15.7222 95.4428 16.0404V20.3079H94.1959V16.3671C94.1959 15.3078 93.7547 14.7809 92.8326 14.7809C92.6239 14.7708 92.4155 14.8078 92.2218 14.8896C92.0281 14.9713 91.8537 15.0958 91.7104 15.2544C91.5671 15.4131 91.4584 15.6022 91.3917 15.8089C91.325 16.0155 91.3019 16.2347 91.324 16.4515V20.308H90.0772L90.0772 13.7158Z" fill="white"/>
<path d="M97.4287 11.143H98.6755V20.3085H97.4287V11.143Z" fill="white"/>
<path d="M100.409 17.0085C100.369 16.5752 100.417 16.1381 100.548 15.7251C100.68 15.3122 100.893 14.9325 101.174 14.6104C101.454 14.2884 101.796 14.0311 102.178 13.855C102.559 13.6789 102.971 13.5879 103.389 13.5879C103.806 13.5879 104.218 13.6789 104.6 13.855C104.981 14.0311 105.323 14.2884 105.604 14.6104C105.884 14.9325 106.097 15.3122 106.229 15.7251C106.36 16.1381 106.408 16.5752 106.368 17.0085C106.409 17.4422 106.362 17.8799 106.23 18.2935C106.099 18.7071 105.886 19.0874 105.606 19.4101C105.325 19.7328 104.983 19.9906 104.601 20.1671C104.219 20.3435 103.806 20.4347 103.389 20.4347C102.971 20.4347 102.558 20.3435 102.176 20.1671C101.794 19.9906 101.452 19.7328 101.172 19.4101C100.891 19.0874 100.678 18.7071 100.547 18.2935C100.415 17.8799 100.368 17.4422 100.409 17.0085ZM105.085 17.0085C105.085 15.5795 104.47 14.7439 103.39 14.7439C102.306 14.7439 101.697 15.5795 101.697 17.0085C101.697 18.4489 102.307 19.2781 103.39 19.2781C104.47 19.2781 105.085 18.4431 105.085 17.0085Z" fill="white"/>
<path d="M107.681 18.4454C107.681 17.2588 108.528 16.5747 110.031 16.4775L111.742 16.3745V15.8055C111.742 15.1093 111.301 14.7161 110.449 14.7161C109.753 14.7161 109.271 14.9828 109.132 15.4488H107.925C108.053 14.3165 109.073 13.5903 110.507 13.5903C112.09 13.5903 112.984 14.413 112.984 15.8055V20.3097H111.784V19.3833H111.685C111.485 19.7156 111.203 19.9865 110.87 20.1683C110.537 20.3502 110.163 20.4364 109.787 20.4183C109.522 20.4471 109.254 20.4176 109 20.3316C108.747 20.2457 108.513 20.1053 108.315 19.9194C108.116 19.7335 107.957 19.5063 107.848 19.2524C107.739 18.9985 107.682 18.7236 107.681 18.4454ZM111.742 17.8821V17.331L110.2 17.4339C109.33 17.4947 108.935 17.8035 108.935 18.3846C108.935 18.9779 109.428 19.3232 110.107 19.3232C110.305 19.3442 110.506 19.3233 110.697 19.2616C110.888 19.2 111.065 19.099 111.217 18.9645C111.37 18.8301 111.495 18.665 111.585 18.479C111.675 18.293 111.729 18.0901 111.742 17.8821Z" fill="white"/>
<path d="M114.623 17.0096C114.623 14.9266 115.649 13.607 117.245 13.607C117.64 13.588 118.032 13.6867 118.375 13.8915C118.718 14.0963 118.998 14.3988 119.182 14.7636H119.276V11.143H120.522V20.3085H119.328V19.267H119.229C119.03 19.6293 118.74 19.928 118.391 20.1308C118.041 20.3335 117.645 20.4326 117.245 20.4172C115.638 20.4173 114.623 19.0976 114.623 17.0096ZM115.911 17.0096C115.911 18.4078 116.542 19.2492 117.599 19.2492C118.649 19.2492 119.299 18.3957 119.299 17.0153C119.299 15.6414 118.643 14.7758 117.599 14.7758C116.549 14.7758 115.911 15.6228 115.911 17.0096Z" fill="white"/>
<path d="M125.681 17.0107C125.641 16.5775 125.689 16.1404 125.82 15.7274C125.952 15.3145 126.165 14.9348 126.446 14.6128C126.726 14.2907 127.068 14.0334 127.449 13.8573C127.831 13.6812 128.243 13.5903 128.66 13.5903C129.078 13.5903 129.49 13.6812 129.871 13.8573C130.253 14.0334 130.595 14.2907 130.875 14.6128C131.156 14.9348 131.369 15.3145 131.5 15.7274C131.632 16.1404 131.68 16.5775 131.64 17.0107C131.68 17.4443 131.633 17.882 131.502 18.2957C131.371 18.7093 131.158 19.0896 130.877 19.4123C130.597 19.735 130.255 19.9929 129.873 20.1693C129.491 20.3458 129.078 20.4369 128.66 20.4369C128.243 20.4369 127.83 20.3458 127.448 20.1693C127.066 19.9929 126.724 19.735 126.444 19.4123C126.163 19.0896 125.95 18.7093 125.819 18.2957C125.688 17.882 125.641 17.4443 125.681 17.0107ZM130.357 17.0107C130.357 15.5817 129.742 14.7461 128.663 14.7461C127.579 14.7461 126.969 15.5817 126.969 17.0107C126.969 18.4511 127.579 19.2803 128.663 19.2803C129.742 19.2803 130.357 18.4454 130.357 17.0107Z" fill="white"/>
<path d="M133.313 13.7158H134.513V14.7631H134.606C134.764 14.3869 135.031 14.0716 135.369 13.8611C135.707 13.6506 136.099 13.5553 136.492 13.5886C136.799 13.5645 137.108 13.6128 137.395 13.7301C137.682 13.8474 137.94 14.0305 138.15 14.266C138.36 14.5015 138.517 14.7832 138.608 15.0904C138.699 15.3976 138.724 15.7223 138.678 16.0405V20.308H137.432V16.3672C137.432 15.3078 136.99 14.7809 136.068 14.7809C135.86 14.7708 135.651 14.8079 135.457 14.8896C135.264 14.9713 135.089 15.0958 134.946 15.2545C134.803 15.4132 134.694 15.6023 134.627 15.8089C134.561 16.0155 134.538 16.2347 134.56 16.4515V20.308H133.313V13.7158Z" fill="white"/>
<path d="M145.724 12.0751V13.7464H147.093V14.8422H145.724V18.232C145.724 18.9225 145.996 19.2249 146.617 19.2249C146.776 19.2243 146.935 19.2143 147.093 19.1948V20.2785C146.869 20.3203 146.642 20.3425 146.414 20.345C145.028 20.345 144.476 19.836 144.476 18.5651V14.8422H143.473V13.7463H144.476V12.0751H145.724Z" fill="white"/>
<path d="M148.795 11.143H150.031V14.7757H150.13C150.296 14.3961 150.569 14.079 150.914 13.8677C151.259 13.6564 151.658 13.5611 152.056 13.5948C152.362 13.5775 152.668 13.6308 152.951 13.7509C153.235 13.871 153.49 14.055 153.698 14.2897C153.906 14.5244 154.061 14.8041 154.154 15.1088C154.246 15.4135 154.273 15.7357 154.232 16.0524V20.3086H152.984V16.3734C152.984 15.3204 152.514 14.7872 151.633 14.7872C151.419 14.7688 151.203 14.7996 151.001 14.8772C150.8 14.9549 150.617 15.0776 150.465 15.2368C150.314 15.396 150.197 15.5878 150.124 15.7988C150.051 16.0098 150.023 16.235 150.042 16.4584V20.3085H148.795L148.795 11.143Z" fill="white"/>
<path d="M161.503 18.5276C161.333 19.13 160.966 19.6512 160.466 19.9998C159.965 20.3485 159.363 20.5024 158.765 20.4347C158.349 20.4462 157.935 20.363 157.553 20.1909C157.17 20.0189 156.829 19.7621 156.551 19.4383C156.273 19.1146 156.066 18.7317 155.945 18.3162C155.823 17.9007 155.79 17.4625 155.846 17.0321C155.791 16.6004 155.825 16.1613 155.947 15.7446C156.068 15.3278 156.274 14.9431 156.55 14.6166C156.826 14.29 157.166 14.0292 157.547 13.8517C157.929 13.6743 158.342 13.5844 158.759 13.5881C160.517 13.5881 161.578 14.8412 161.578 16.9113V17.3653H157.117V17.4382C157.097 17.6801 157.126 17.9236 157.202 18.1531C157.278 18.3825 157.399 18.5929 157.558 18.7707C157.716 18.9485 157.908 19.0898 158.122 19.1856C158.336 19.2813 158.567 19.3294 158.799 19.3267C159.097 19.3641 159.4 19.308 159.667 19.1657C159.935 19.0234 160.156 18.8012 160.302 18.5275L161.503 18.5276ZM157.117 16.4031H160.308C160.323 16.1818 160.295 15.9596 160.223 15.7507C160.152 15.5417 160.039 15.3507 159.893 15.1899C159.746 15.029 159.569 14.902 159.373 14.8168C159.176 14.7316 158.965 14.6903 158.753 14.6953C158.537 14.6925 158.323 14.7348 158.123 14.8196C157.923 14.9044 157.742 15.0301 157.589 15.1893C157.437 15.3484 157.317 15.5378 157.235 15.7463C157.154 15.9547 157.114 16.1781 157.117 16.4031Z" fill="white"/>
</g>
<defs>
<clipPath id="clip0_1973_29818">
<rect width="196" height="56" fill="white" transform="translate(0 0.0722656)"/>
</clipPath>
</defs>
</svg>
