<svg width="38" height="35" viewBox="0 0 38 35" fill="none" xmlns="http://www.w3.org/2000/svg">
<path d="M36.3571 25.8673V4.55883C36.3571 2.42521 34.6391 0.873521 32.5332 1.03978H32.4224C28.7094 1.34458 23.0844 3.25655 19.9255 5.22391L19.6207 5.4179C19.122 5.7227 18.2628 5.7227 17.7364 5.4179L17.2931 5.14079C14.1619 3.17342 8.53695 1.31684 4.8239 1.01204C2.71799 0.845785 1 2.42527 1 4.53118V25.8673C1 27.5576 2.38543 29.1647 4.07569 29.3587L4.57444 29.4418C8.39833 29.9406 14.3283 31.9079 17.7088 33.7645L17.7918 33.7922C18.2629 34.0693 19.0387 34.0693 19.4821 33.7922C22.8626 31.908 28.8201 29.9683 32.6717 29.4418L33.2537 29.3587C34.9717 29.1647 36.3571 27.5853 36.3571 25.8673Z" stroke="#78A0FA" stroke-width="1.5" stroke-linecap="round" stroke-linejoin="round"/>
<path d="M18.6786 5.99973V32.4898" stroke="#78A0FA" stroke-width="1.5" stroke-linecap="round" stroke-linejoin="round"/>
</svg>
