<svg width="34" height="33" viewBox="0 0 34 33" fill="none" xmlns="http://www.w3.org/2000/svg">
<path d="M12.7571 30.2501H21.0071C27.8821 30.2501 30.6321 27.5001 30.6321 20.6251V12.3751C30.6321 5.50006 27.8821 2.75006 21.0071 2.75006H12.7571C5.88208 2.75006 3.13208 5.50006 3.13208 12.3751V20.6251C3.13208 27.5001 5.88208 30.2501 12.7571 30.2501Z" stroke="#1CC4CE" stroke-width="1.5" stroke-linecap="round" stroke-linejoin="round"/>
<path d="M21.6946 13.4063C22.8337 13.4063 23.7571 12.4829 23.7571 11.3438C23.7571 10.2047 22.8337 9.28131 21.6946 9.28131C20.5555 9.28131 19.6321 10.2047 19.6321 11.3438C19.6321 12.4829 20.5555 13.4063 21.6946 13.4063Z" stroke="#1CC4CE" stroke-width="1.5" stroke-miterlimit="10" stroke-linecap="round" stroke-linejoin="round"/>
<path d="M12.0696 13.4063C13.2087 13.4063 14.1321 12.4829 14.1321 11.3438C14.1321 10.2047 13.2087 9.28131 12.0696 9.28131C10.9305 9.28131 10.0071 10.2047 10.0071 11.3438C10.0071 12.4829 10.9305 13.4063 12.0696 13.4063Z" stroke="#1CC4CE" stroke-width="1.5" stroke-miterlimit="10" stroke-linecap="round" stroke-linejoin="round"/>
<path d="M11.9321 18.2876H21.8321C22.5196 18.2876 23.0696 18.8376 23.0696 19.5251C23.0696 22.9488 20.3058 25.7126 16.8821 25.7126C13.4583 25.7126 10.6946 22.9488 10.6946 19.5251C10.6946 18.8376 11.2446 18.2876 11.9321 18.2876Z" stroke="#1CC4CE" stroke-width="1.5" stroke-miterlimit="10" stroke-linecap="round" stroke-linejoin="round"/>
</svg>
