<svg width="34" height="33" viewBox="0 0 34 33" fill="none" xmlns="http://www.w3.org/2000/svg">
<path d="M14.4994 24.0626H19.9994" stroke="#FC992D" stroke-width="1.5" stroke-linecap="round" stroke-linejoin="round"/>
<path d="M3.49939 24.0626V10.3126C3.49939 4.81256 4.87439 3.43756 10.3744 3.43756" stroke="#FC992D" stroke-width="1.5" stroke-linecap="round" stroke-linejoin="round"/>
<path d="M30.9994 24.0626V10.3126C30.9994 4.81256 29.6244 3.43756 24.1244 3.43756" stroke="#FC992D" stroke-width="1.5" stroke-linecap="round" stroke-linejoin="round"/>
<path d="M14.4994 21.8763V26.4001C14.4994 29.1501 13.3994 30.2501 10.6494 30.2501H7.34939C4.59939 30.2501 3.49939 29.1501 3.49939 26.4001V21.8763C3.49939 19.1263 4.59939 18.0263 7.34939 18.0263H10.6494C13.3994 18.0263 14.4994 19.1263 14.4994 21.8763Z" stroke="#FC992D" stroke-width="1.5" stroke-linecap="round" stroke-linejoin="round"/>
<path d="M30.9994 21.8763V26.4001C30.9994 29.1501 29.8994 30.2501 27.1494 30.2501H23.8494C21.0994 30.2501 19.9994 29.1501 19.9994 26.4001V21.8763C19.9994 19.1263 21.0994 18.0263 23.8494 18.0263H27.1494C29.8994 18.0263 30.9994 19.1263 30.9994 21.8763Z" stroke="#FC992D" stroke-width="1.5" stroke-linecap="round" stroke-linejoin="round"/>
</svg>
