<svg width="203" height="57" viewBox="0 0 203 57" fill="none" xmlns="http://www.w3.org/2000/svg">
<g clip-path="url(#clip0_1973_29823)">
<path d="M195.481 0.0722618H7.51852C3.38333 0.0722618 0 3.22227 0 7.07227V49.0723C0 52.9223 3.38333 56.0723 7.51852 56.0723H195.481C199.617 56.0723 203 52.9223 203 49.0723V7.07227C203 3.22227 199.617 0.0722618 195.481 0.0722618ZM195.481 1.19226C198.964 1.19226 201.797 3.83043 201.797 7.07227V49.0723C201.797 52.3147 198.964 54.9528 195.481 54.9528H7.51852C4.03654 54.9528 1.20296 52.3147 1.20296 49.0723V7.07227C1.20296 3.83043 4.03654 1.19226 7.51852 1.19226H195.481Z" fill="white"/>
<path d="M72.4196 14.4801C72.4196 15.6472 72.0701 16.5766 71.3702 17.27C70.5753 18.0944 69.5392 18.5068 68.2655 18.5068C67.0457 18.5068 66.0086 18.0889 65.1558 17.252C64.3013 16.4156 63.875 15.3785 63.875 14.1411C63.875 12.9031 64.3013 11.8665 65.1558 11.0296C66.0086 10.1932 67.0457 9.77473 68.2655 9.77473C68.8707 9.77473 69.4502 9.89175 70.0003 10.1252C70.5505 10.3593 70.9918 10.6699 71.3219 11.059L70.5791 11.7941C70.0196 11.1329 69.2493 10.8027 68.2655 10.8027C67.3758 10.8027 66.6067 11.1118 65.9575 11.7304C65.3082 12.3498 64.9836 13.1528 64.9836 14.1411C64.9836 15.1293 65.3082 15.9324 65.9575 16.5517C66.6067 17.1704 67.3758 17.4795 68.2655 17.4795C69.2092 17.4795 69.996 17.1687 70.6258 16.5463C71.0347 16.1408 71.2712 15.5771 71.3345 14.8533H68.2655V13.8494H72.3607C72.4003 14.0677 72.4196 14.2772 72.4196 14.4801Z" fill="white"/>
<path d="M72.4198 14.4805H72.279C72.2778 15.6209 71.9411 16.5068 71.2709 17.1718L71.2693 17.1729L71.2688 17.174C70.499 17.97 69.5097 18.3662 68.2657 18.3679C67.0785 18.3662 66.0848 17.9657 65.255 17.1538C64.4271 16.3403 64.0176 15.3472 64.0161 14.1414C64.0176 12.935 64.4271 11.9425 65.255 11.1295C66.0848 10.3171 67.0785 9.91606 68.2657 9.91438C68.8528 9.91438 69.4118 10.0276 69.9449 10.2534C70.4786 10.4809 70.9002 10.779 71.2143 11.1492L71.3222 11.0593L71.2226 10.9608L70.4797 11.6965L70.5793 11.7944L70.6878 11.7053C70.1023 11.0114 69.2804 10.6616 68.2657 10.6637C67.3431 10.6626 66.5315 10.9886 65.8602 11.6307C65.1825 12.275 64.8419 13.1232 64.843 14.1414C64.8419 15.1596 65.1825 16.0078 65.8602 16.6521C66.5315 17.2943 67.3431 17.6202 68.2657 17.6191C69.2407 17.6208 70.0715 17.2937 70.7257 16.6451C71.1626 16.2119 71.4102 15.6118 71.4751 14.8656L71.4882 14.7144H68.4065V13.989H72.3609V13.8497L72.2222 13.8742C72.2608 14.0854 72.279 14.2861 72.279 14.4805H72.4198H72.5607C72.5607 14.2687 72.5408 14.0511 72.4995 13.8248L72.4787 13.7104H68.1248V14.8537V14.993H71.3347V14.8537L71.1944 14.8417C71.1323 15.5427 70.9067 16.0705 70.5265 16.4481C69.9213 17.0445 69.1785 17.3388 68.2657 17.3405C67.409 17.3394 66.6822 17.0477 66.0556 16.4519C65.435 15.8582 65.1263 15.1002 65.1247 14.1414C65.1263 13.1826 65.435 12.4246 66.0556 11.8309C66.6822 11.2351 67.409 10.9434 68.2657 10.9423C69.2181 10.9445 69.9373 11.2557 70.4716 11.8843L70.5706 12.0007L71.4217 11.1578L71.513 11.0675L71.4299 10.97C71.0838 10.562 70.6228 10.2381 70.056 9.99769C69.4883 9.75655 68.8891 9.63578 68.2657 9.63578C67.0135 9.63466 65.9329 10.07 65.0564 10.9314C64.1766 11.7912 63.7333 12.8719 63.7344 14.1414C63.7333 15.4103 64.1766 16.4916 65.057 17.3519C65.9329 18.2128 67.0135 18.6476 68.2657 18.6465C69.5697 18.6476 70.6514 18.2192 71.4723 17.3666L71.3705 17.2703L71.4701 17.3688C72.1997 16.6478 72.5617 15.6737 72.5607 14.4805H72.4198Z" fill="white"/>
<path d="M78.9121 10.9899H75.0635V13.64H78.5342V14.6444H75.0635V17.2945H78.9121V18.3213H73.9785V9.96308H78.9121V10.9899Z" fill="white"/>
<path d="M78.9123 10.9893V10.85H74.9229V13.7787H78.3936V14.504L74.9229 14.5044V17.4332H78.7715V18.1814H74.1196V10.1018H78.7715V10.9893H78.9123V10.85V10.9893H79.0532V9.96245V9.82314H73.8379V18.46H79.0532V17.2939V17.1545H75.2046V14.783H78.6753V13.6394V13.5001H75.2046V11.1286H79.0532V10.9893H78.9123Z" fill="white"/>
<path d="M83.492 18.3213H82.4053V10.9899H80.0449V9.96308H85.8524V10.9899H83.492V18.3213Z" fill="white"/>
<path d="M83.4922 18.3207V18.1814H82.5464V10.85H80.186V10.1018H85.7117V10.85H83.3513V18.3207H83.4922V18.1814V18.3207H83.633V11.1286H85.9934V9.96245V9.82314H79.9043V10.9893V11.1286H82.2647V18.46H83.4922H83.633V18.3207H83.4922Z" fill="white"/>
<path d="M90.0547 18.3213V9.96308H91.1402V18.3213H90.0547Z" fill="white"/>
<path d="M90.0549 18.3207H90.1958V10.1018H90.9996V18.1814H90.0549V18.3207H90.1958H90.0549V18.46H91.1404H91.2813V9.82314H90.0549H89.9141V18.46H90.0549V18.3207Z" fill="white"/>
<path d="M95.9567 18.3213H94.87V10.9899H92.5098V9.96308H98.3171V10.9899H95.9567V18.3213Z" fill="white"/>
<path d="M95.9569 18.3207V18.1814H95.0111V10.85H92.6508V10.1018H98.1764V10.85H95.816V18.3207H95.9569V18.1814V18.3207H96.0977V11.1286H98.4581V9.96245V9.82314H92.3691V10.9893V11.1286H94.7294V18.46H95.9569H96.0977V18.3207H95.9569Z" fill="white"/>
<path d="M103.916 16.5403C104.541 17.1666 105.307 17.4795 106.212 17.4795C107.117 17.4795 107.883 17.1666 108.507 16.5403C109.133 15.914 109.447 15.1134 109.447 14.1411C109.447 13.1687 109.133 12.3681 108.507 11.7418C107.883 11.1155 107.117 10.8027 106.212 10.8027C105.307 10.8027 104.541 11.1155 103.916 11.7418C103.291 12.3681 102.978 13.1687 102.978 14.1411C102.978 15.1134 103.291 15.914 103.916 16.5403ZM109.311 17.24C108.48 18.085 107.446 18.5068 106.212 18.5068C104.976 18.5068 103.943 18.085 103.114 17.24C102.283 16.396 101.869 15.3628 101.869 14.1411C101.869 12.9194 102.283 11.886 103.114 11.0421C103.943 10.197 104.976 9.77473 106.212 9.77473C107.44 9.77473 108.47 10.1992 109.305 11.0476C110.139 11.8959 110.556 12.927 110.556 14.1411C110.556 15.3628 110.14 16.396 109.311 17.24Z" fill="white"/>
<path d="M103.916 16.5406L103.816 16.6386C104.465 17.2899 105.274 17.6208 106.212 17.6191C107.15 17.6208 107.96 17.2899 108.608 16.6386C109.261 15.9866 109.589 15.1431 109.588 14.1414C109.589 13.1397 109.261 12.2962 108.608 11.6443C107.96 10.9929 107.15 10.662 106.212 10.6637C105.274 10.662 104.465 10.9929 103.816 11.6443C103.164 12.2962 102.835 13.1397 102.837 14.1414C102.835 15.1431 103.164 15.9866 103.816 16.6386L103.916 16.5406L104.016 16.4427C103.419 15.8413 103.12 15.0849 103.119 14.1414C103.12 13.1979 103.419 12.4415 104.016 11.8401C104.619 11.2389 105.339 10.944 106.212 10.9423C107.084 10.944 107.806 11.2389 108.407 11.8401C109.006 12.4415 109.305 13.1979 109.306 14.1414C109.305 15.0849 109.006 15.8413 108.407 16.4427C107.806 17.0439 107.084 17.3388 106.212 17.3405C105.339 17.3388 104.619 17.0439 104.016 16.4427L103.916 16.5406ZM109.311 17.2404L109.21 17.1435C108.402 17.9619 107.415 18.3662 106.212 18.3679C105.009 18.3662 104.021 17.9619 103.215 17.1435L103.211 17.1392L103.215 17.1435C102.409 16.3223 102.011 15.332 102.01 14.1414C102.011 12.9508 102.409 11.9605 103.215 11.1393C104.021 10.3209 105.009 9.91605 106.212 9.91438C107.407 9.91605 108.392 10.3225 109.205 11.1453C110.013 11.9702 110.413 12.959 110.415 14.1414C110.413 15.332 110.015 16.3223 109.21 17.1435L109.311 17.2404L109.412 17.3372C110.266 16.4699 110.698 15.394 110.697 14.1414C110.698 12.8959 110.264 11.8223 109.406 10.9511C108.548 10.0765 107.473 9.63424 106.212 9.63578C104.944 9.63424 103.866 10.0744 103.013 10.9456V10.9451C102.158 11.8129 101.727 12.8888 101.729 14.1414C101.727 15.394 102.158 16.4699 103.013 17.3377L103.017 17.3416L103.013 17.3372C103.866 18.2084 104.944 18.6476 106.212 18.6465C107.479 18.6476 108.558 18.2084 109.412 17.3372L109.311 17.2404Z" fill="white"/>
<path d="M112.08 18.3213V9.96308H113.402L117.509 16.4652H117.556L117.509 14.8544V9.96308H118.596V18.3213H117.462L113.165 11.5041H113.118L113.165 13.1154V18.3213H112.08Z" fill="white"/>
<path d="M112.078 18.3207H112.219V10.1018H113.322L117.429 16.6039H117.554H117.699L117.648 14.8517V10.1018H118.453V18.1814H117.539L113.241 11.3641H113.117H112.972L113.022 13.117V18.1814H112.078V18.3207H112.219H112.078V18.46H113.163H113.304V13.1125L113.257 11.4997L113.117 11.5034V11.6427H113.163V11.5034L113.044 11.5775L117.382 18.46H118.594H118.735V9.82314H117.507H117.366V14.8555L117.413 16.4683L117.554 16.4646V16.3253H117.507V16.4646L117.627 16.3906L113.478 9.82314H112.078H111.938V18.46H112.078V18.3207Z" fill="white"/>
<path d="M156.252 42.0024H158.88V24.5878H156.252V42.0024ZM179.925 30.8609L176.912 38.411H176.822L173.695 30.8609H170.864L175.553 41.4135L172.88 47.2834H175.622L182.848 30.8609H179.925ZM165.02 40.0244C164.158 40.0244 162.958 39.5988 162.958 38.5454C162.958 37.2013 164.454 36.686 165.744 36.686C166.9 36.686 167.443 36.9324 168.146 37.2688C167.941 38.8817 166.537 40.0244 165.02 40.0244ZM165.337 30.4799C163.434 30.4799 161.464 31.3092 160.648 33.1463L162.981 34.1094C163.479 33.1463 164.407 32.8323 165.382 32.8323C166.741 32.8323 168.123 33.6393 168.146 35.0731V35.2521C167.67 34.9833 166.651 34.5801 165.405 34.5801C162.89 34.5801 160.33 35.9464 160.33 38.5007C160.33 40.8308 162.392 42.3321 164.702 42.3321C166.469 42.3321 167.443 41.548 168.055 40.6295H168.146V41.9735H170.682V35.2967C170.682 32.2054 168.35 30.4799 165.337 30.4799ZM149.094 32.9808H145.356V27.0115H149.094C151.059 27.0115 152.174 28.6205 152.174 29.9961C152.174 31.3457 151.059 32.9808 149.094 32.9808ZM149.026 24.5878H142.729V42.0024H145.356V35.4045H149.026C151.939 35.4045 154.803 33.3188 154.803 29.9961C154.803 26.6736 151.939 24.5878 149.026 24.5878ZM114.686 40.0276C112.87 40.0276 111.35 38.5241 111.35 36.4591C111.35 34.3723 112.87 32.846 114.686 32.846C116.478 32.846 117.885 34.3723 117.885 36.4591C117.885 38.5241 116.478 40.0276 114.686 40.0276ZM117.703 31.836H117.613C117.023 31.1405 115.888 30.5121 114.458 30.5121C111.463 30.5121 108.718 33.1152 108.718 36.4591C108.718 39.7806 111.463 42.3615 114.458 42.3615C115.888 42.3615 117.023 41.733 117.613 41.0153H117.703V41.8679C117.703 44.135 116.478 45.3468 114.504 45.3468C112.893 45.3468 111.894 44.2018 111.486 43.237L109.194 44.1795C109.852 45.7505 111.6 47.6807 114.504 47.6807C117.59 47.6807 120.2 45.8849 120.2 41.5088V30.8712H117.703V31.836ZM122.015 42.0024H124.647V24.5872H122.015V42.0024ZM128.527 36.2572C128.459 33.9679 130.32 32.8012 131.659 32.8012C132.703 32.8012 133.588 33.3171 133.882 34.0583L128.527 36.2572ZM136.696 34.2825C136.198 32.958 134.677 30.5121 131.568 30.5121C128.482 30.5121 125.918 32.9134 125.918 36.4368C125.918 39.7583 128.459 42.3615 131.863 42.3615C134.609 42.3615 136.198 40.7007 136.856 39.7359L134.813 38.3891C134.133 39.3768 133.202 40.0276 131.863 40.0276C130.524 40.0276 129.571 39.4215 128.958 38.2324L136.968 34.9556L136.696 34.2825ZM72.8793 32.33V34.8434H78.9605C78.779 36.2572 78.3025 37.2895 77.5762 38.0077C76.6916 38.8832 75.3073 39.848 72.8793 39.848C69.135 39.848 66.208 36.8633 66.208 33.1604C66.208 29.4574 69.135 26.4723 72.8793 26.4723C74.899 26.4723 76.3735 27.2579 77.4629 28.2679L79.2555 26.4951C77.7353 25.0585 75.7155 23.9588 72.8793 23.9588C67.7508 23.9588 63.4395 28.0883 63.4395 33.1604C63.4395 38.2324 67.7508 42.3615 72.8793 42.3615C75.6479 42.3615 77.7353 41.4642 79.3689 39.7806C81.0481 38.1198 81.5702 35.786 81.5702 33.901C81.5702 33.3171 81.525 32.779 81.4337 32.33H72.8793ZM88.484 40.0276C86.6683 40.0276 85.1025 38.5464 85.1025 36.4368C85.1025 34.3047 86.6683 32.846 88.484 32.846C90.299 32.846 91.8649 34.3047 91.8649 36.4368C91.8649 38.5464 90.299 40.0276 88.484 40.0276ZM88.484 30.5121C85.1707 30.5121 82.4703 33.0031 82.4703 36.4368C82.4703 39.848 85.1707 42.3615 88.484 42.3615C91.7967 42.3615 94.4971 39.848 94.4971 36.4368C94.4971 33.0031 91.7967 30.5121 88.484 30.5121ZM101.602 40.0276C99.7868 40.0276 98.2208 38.5464 98.2208 36.4368C98.2208 34.3047 99.7868 32.846 101.602 32.846C103.417 32.846 104.983 34.3047 104.983 36.4368C104.983 38.5464 103.417 40.0276 101.602 40.0276ZM101.602 30.5121C98.2885 30.5121 95.5887 33.0031 95.5887 36.4368C95.5887 39.848 98.2885 42.3615 101.602 42.3615C104.915 42.3615 107.615 39.848 107.615 36.4368C107.615 33.0031 104.915 30.5121 101.602 30.5121Z" fill="white"/>
<path d="M20.4342 45.3311L20.3296 45.232C19.9197 44.8031 19.6777 44.1371 19.6777 43.2747V43.4776V12.6693C19.6777 12.6665 19.6777 12.6644 19.6777 12.6622C19.6777 12.6648 19.6777 12.667 19.6777 12.6698V12.8733C19.6777 11.9395 19.9599 11.236 20.4326 10.8142L37.8837 28.0732L20.4342 45.3311ZM19.6777 12.6605C19.6777 12.5837 19.6798 12.5092 19.6838 12.4358C19.6798 12.5086 19.6777 12.5837 19.6777 12.6605ZM19.6838 12.4325C19.6838 12.4315 19.6838 12.4304 19.6842 12.4292C19.6838 12.4304 19.6838 12.4315 19.6838 12.4325ZM19.6842 12.4227C19.6842 12.4221 19.6842 12.4216 19.6842 12.421C19.6842 12.4216 19.6842 12.4221 19.6842 12.4227Z" fill="url(#paint0_linear_1973_29823)"/>
<path d="M43.699 34.0322L43.8317 33.9577L50.7234 30.0849C51.3804 29.7155 51.8183 29.2676 52.0368 28.7937C51.8189 29.2676 51.3808 29.716 50.7234 30.0855L43.8317 33.9583L43.699 34.0322ZM43.7007 33.8281L37.8828 28.0732L43.7001 22.3193L50.7234 26.2655C51.6152 26.7667 52.1159 27.4127 52.1996 28.0727C52.1996 28.0732 52.1996 28.0744 52.1996 28.0753C52.1159 28.7338 51.6152 29.3803 50.7234 29.8814L43.7007 33.8281Z" fill="url(#paint1_linear_1973_29823)"/>
<path d="M21.6777 45.9883C21.1902 45.9883 20.7648 45.8316 20.4331 45.5355L20.4337 45.535C20.7654 45.831 21.1913 45.9883 21.6788 45.9883C21.721 45.9883 21.764 45.9872 21.8075 45.9851C21.7634 45.9872 21.7199 45.9883 21.6777 45.9883ZM21.6782 45.7842C21.1907 45.7848 20.7654 45.6275 20.4337 45.3315V45.331L37.8831 28.0732L43.701 33.8281L23.2562 45.3168C22.6905 45.634 22.1546 45.7842 21.6782 45.7842ZM20.4287 45.5318C20.3979 45.5041 20.3676 45.4747 20.3379 45.4442L20.4287 45.5318Z" fill="url(#paint2_linear_1973_29823)"/>
<path d="M37.8828 28.0732L20.4316 10.8142C20.7633 10.5188 21.1882 10.3621 21.6751 10.3621C22.1527 10.3621 22.6891 10.5128 23.2558 10.8305L43.7001 22.3193L37.8828 28.0732ZM43.8316 22.1893L23.2558 10.6272C22.6891 10.3093 22.1527 10.1585 21.6751 10.1585C21.6728 10.1585 21.6713 10.1585 21.669 10.1585C21.6718 10.1585 21.6739 10.1585 21.6773 10.1585C22.1538 10.1585 22.6896 10.3087 23.2558 10.6266L43.8316 22.1893Z" fill="url(#paint3_linear_1973_29823)"/>
<path d="M21.8086 45.9844C22.2514 45.9593 22.7417 45.8086 23.2572 45.5197L43.7004 34.0314L23.2572 45.5197C22.7422 45.8091 22.2514 45.9593 21.8086 45.9844ZM20.4342 45.5348L20.4298 45.5311C20.4314 45.5322 20.433 45.5337 20.4342 45.5348ZM20.339 45.4435L20.3301 45.4348V45.4343C20.3335 45.4375 20.3361 45.4407 20.339 45.4435Z" fill="white"/>
<path d="M43.6992 34.0322L43.8319 33.9577L43.6992 34.0322Z" fill="url(#paint4_linear_1973_29823)"/>
<path d="M21.6799 45.9883C21.1924 45.9883 20.7664 45.831 20.4347 45.535L20.4342 45.5355C20.433 45.5344 20.4314 45.5329 20.4298 45.5318L20.339 45.4442C20.3361 45.4414 20.3335 45.4382 20.3301 45.435L20.4347 45.3315C20.7664 45.6275 21.1918 45.7848 21.6793 45.7842C22.1556 45.7842 22.6916 45.634 23.2572 45.3168L43.702 33.8281L43.833 33.9576L43.7004 34.0321L23.2572 45.5204C22.7417 45.8093 22.2514 45.96 21.8086 45.9851C21.7651 45.9872 21.7221 45.9883 21.6799 45.9883Z" fill="url(#paint5_linear_1973_29823)"/>
<path d="M20.3296 45.4355C19.9197 45.0066 19.6777 44.3406 19.6777 43.4782V43.4776C19.6777 44.3406 19.9197 45.0061 20.3296 45.435V45.4355Z" fill="white"/>
<path d="M20.3296 45.4346C19.9197 45.0057 19.6777 44.3402 19.6777 43.4772V43.2743C19.6777 44.1367 19.9197 44.8027 20.3296 45.2316L20.4342 45.3306L20.3296 45.4346Z" fill="url(#paint6_linear_1973_29823)"/>
<path d="M20.3301 45.4346L20.4347 45.3307V45.3311L20.3301 45.4346Z" fill="url(#paint7_linear_1973_29823)"/>
<path d="M52.0371 28.7939C52.1454 28.5588 52.1999 28.3173 52.1999 28.0756C52.1999 28.0751 52.1999 28.0746 52.1999 28.0746C52.1999 28.3167 52.1454 28.5582 52.0371 28.7939Z" fill="white"/>
<path d="M43.8322 33.957L43.7012 33.8275L50.7239 29.8807C51.6157 29.3797 52.1165 28.7331 52.2001 28.0747C52.2001 28.3164 52.1456 28.5579 52.0373 28.793C51.8188 29.267 51.3809 29.7148 50.7239 30.0843L43.8322 33.957Z" fill="url(#paint8_linear_1973_29823)"/>
<path d="M52.2006 28.0732V28.0727C52.2 27.344 51.7076 26.6154 50.7243 26.0625L43.8326 22.1898H43.832L43.8326 22.1893L50.7243 26.062C51.7087 26.6149 52.2017 27.3445 52.2006 28.0732Z" fill="#404040"/>
<path d="M52.2007 28.0723C52.117 27.4122 51.6163 26.7663 50.7244 26.2651L43.7012 22.3189L43.8322 22.1893H43.8327L50.7244 26.0621C51.7077 26.615 52.2001 27.3436 52.2007 28.0723Z" fill="url(#paint9_linear_1973_29823)"/>
<path d="M19.6777 12.6621C19.6777 12.6616 19.6777 12.661 19.6777 12.6604C19.6777 12.661 19.6777 12.6616 19.6777 12.6621ZM19.6838 12.4357C19.6838 12.4346 19.6838 12.4335 19.6838 12.4324C19.6838 12.4335 19.6838 12.4346 19.6838 12.4357ZM19.6842 12.4292C19.6842 12.427 19.6842 12.4249 19.6842 12.4226C19.6842 12.4249 19.6842 12.427 19.6842 12.4292ZM19.6842 12.421C19.7658 10.9899 20.5526 10.1633 21.6656 10.1584C21.183 10.1612 20.7627 10.3179 20.4337 10.6111V10.6106L20.4297 10.6145C20.3951 10.6454 20.3621 10.6782 20.3296 10.7119C19.9599 11.0987 19.7266 11.6782 19.6842 12.421Z" fill="#404040"/>
<path d="M19.6777 12.873V12.6695C19.6777 12.6667 19.6777 12.6645 19.6777 12.6619C19.6777 12.6613 19.6777 12.6608 19.6777 12.6602C19.6777 12.5834 19.6798 12.5084 19.6838 12.4355C19.6838 12.4344 19.6838 12.4333 19.6838 12.4322C19.6838 12.4312 19.6838 12.4301 19.6842 12.4289C19.6842 12.4267 19.6842 12.4246 19.6842 12.4224C19.6842 12.4218 19.6842 12.4213 19.6842 12.4207C19.7266 11.678 19.9599 11.0985 20.3296 10.7116L20.4326 10.8139C19.9599 11.2357 19.6777 11.9392 19.6777 12.873ZM20.4297 10.6142L20.4337 10.6103C20.4326 10.612 20.4309 10.6131 20.4297 10.6142Z" fill="url(#paint10_linear_1973_29823)"/>
<path d="M43.7015 22.3193L23.2572 10.8306C22.6905 10.5128 22.1541 10.3621 21.6765 10.3621C21.1896 10.3621 20.7647 10.5188 20.433 10.8143L20.3301 10.712C20.3626 10.6783 20.3956 10.6456 20.4302 10.6146C20.4313 10.6135 20.433 10.6124 20.4342 10.6113C20.7632 10.3181 21.1835 10.1613 21.666 10.1586C21.6672 10.1586 21.6687 10.1586 21.6704 10.1586C21.6727 10.1586 21.6742 10.1586 21.6765 10.1586C22.1541 10.1586 22.6905 10.3093 23.2572 10.6272L43.833 22.1894L43.8325 22.1898L43.7015 22.3193Z" fill="url(#paint11_linear_1973_29823)"/>
</g>
<defs>
<linearGradient id="paint0_linear_1973_29823" x1="36.3363" y1="12.3443" x2="12.9591" y2="35.9812" gradientUnits="userSpaceOnUse">
<stop stop-color="#00A0FF"/>
<stop offset="0.00657445" stop-color="#00A1FF"/>
<stop offset="0.2601" stop-color="#00BEFF"/>
<stop offset="0.5122" stop-color="#00D2FF"/>
<stop offset="0.7604" stop-color="#00DFFF"/>
<stop offset="1" stop-color="#00E3FF"/>
</linearGradient>
<linearGradient id="paint1_linear_1973_29823" x1="53.2863" y1="28.0741" x2="19.2046" y2="28.0741" gradientUnits="userSpaceOnUse">
<stop stop-color="#FFE000"/>
<stop offset="0.4087" stop-color="#FFBD00"/>
<stop offset="0.7754" stop-color="#FFA500"/>
<stop offset="1" stop-color="#FF9C00"/>
</linearGradient>
<linearGradient id="paint2_linear_1973_29823" x1="40.5996" y1="31.2706" x2="8.89842" y2="63.3239" gradientUnits="userSpaceOnUse">
<stop stop-color="#FF3A44"/>
<stop offset="1" stop-color="#C31162"/>
</linearGradient>
<linearGradient id="paint3_linear_1973_29823" x1="15.9085" y1="0.456887" x2="30.0643" y2="14.77" gradientUnits="userSpaceOnUse">
<stop stop-color="#32A071"/>
<stop offset="0.0685" stop-color="#2DA771"/>
<stop offset="0.4762" stop-color="#15CF74"/>
<stop offset="0.8009" stop-color="#06E775"/>
<stop offset="1" stop-color="#00F076"/>
</linearGradient>
<linearGradient id="paint4_linear_1973_29823" x1="53.2861" y1="28.0744" x2="19.2058" y2="28.0744" gradientUnits="userSpaceOnUse">
<stop stop-color="#CCB300"/>
<stop offset="0.4087" stop-color="#CC9700"/>
<stop offset="0.7754" stop-color="#CC8400"/>
<stop offset="1" stop-color="#CC7D00"/>
</linearGradient>
<linearGradient id="paint5_linear_1973_29823" x1="40.6007" y1="31.2706" x2="8.89948" y2="63.3239" gradientUnits="userSpaceOnUse">
<stop stop-color="#CC2E36"/>
<stop offset="1" stop-color="#9C0E4E"/>
</linearGradient>
<linearGradient id="paint6_linear_1973_29823" x1="36.3364" y1="12.3439" x2="12.9592" y2="35.9808" gradientUnits="userSpaceOnUse">
<stop stop-color="#008DE0"/>
<stop offset="0.00657445" stop-color="#008DE0"/>
<stop offset="0.2601" stop-color="#00A7E0"/>
<stop offset="0.5122" stop-color="#00B8E0"/>
<stop offset="0.7604" stop-color="#00C4E0"/>
<stop offset="1" stop-color="#00C7E0"/>
</linearGradient>
<linearGradient id="paint7_linear_1973_29823" x1="40.6012" y1="31.2708" x2="8.90152" y2="63.3251" gradientUnits="userSpaceOnUse">
<stop stop-color="#E0333C"/>
<stop offset="1" stop-color="#AB0F56"/>
</linearGradient>
<linearGradient id="paint8_linear_1973_29823" x1="53.2868" y1="28.0734" x2="19.2051" y2="28.0734" gradientUnits="userSpaceOnUse">
<stop stop-color="#E0C500"/>
<stop offset="0.4087" stop-color="#E0A600"/>
<stop offset="0.7754" stop-color="#E09100"/>
<stop offset="1" stop-color="#E08900"/>
</linearGradient>
<linearGradient id="paint9_linear_1973_29823" x1="53.2873" y1="28.0737" x2="19.2056" y2="28.0737" gradientUnits="userSpaceOnUse">
<stop stop-color="#FFE840"/>
<stop offset="0.4087" stop-color="#FFCE40"/>
<stop offset="0.7754" stop-color="#FFBC40"/>
<stop offset="1" stop-color="#FFB540"/>
</linearGradient>
<linearGradient id="paint10_linear_1973_29823" x1="36.3363" y1="12.344" x2="12.9591" y2="35.9809" gradientUnits="userSpaceOnUse">
<stop stop-color="#40B8FF"/>
<stop offset="0.00657445" stop-color="#40B9FF"/>
<stop offset="0.2601" stop-color="#40CEFF"/>
<stop offset="0.5122" stop-color="#40DDFF"/>
<stop offset="0.7604" stop-color="#40E7FF"/>
<stop offset="1" stop-color="#40EAFF"/>
</linearGradient>
<linearGradient id="paint11_linear_1973_29823" x1="15.9099" y1="0.456904" x2="30.0657" y2="14.77" gradientUnits="userSpaceOnUse">
<stop stop-color="#65B895"/>
<stop offset="0.0685" stop-color="#62BD95"/>
<stop offset="0.4762" stop-color="#50DB97"/>
<stop offset="0.8009" stop-color="#44ED98"/>
<stop offset="1" stop-color="#40F498"/>
</linearGradient>
<clipPath id="clip0_1973_29823">
<rect width="203" height="56" fill="white" transform="translate(0 0.0722656)"/>
</clipPath>
</defs>
</svg>
