<svg width="60" height="61" viewBox="0 0 60 61" fill="none" xmlns="http://www.w3.org/2000/svg">
<rect y="0.175781" width="60" height="60" rx="30" fill="#EAF1FF"/>
<path d="M22.5 24.2695V25.957H24.375V24.2695H22.5Z" fill="#6D819B"/>
<path d="M35.625 24.2695V25.957H37.5V24.2695H35.625Z" fill="#6D819B"/>
<path d="M22.5 27.6445V29.332H24.375V27.6445H22.5Z" fill="#6D819B"/>
<path d="M35.625 27.6445V29.332H37.5V27.6445H35.625Z" fill="#6D819B"/>
<path d="M22.5 31.0195V32.707H24.375V31.0195H22.5Z" fill="#6D819B"/>
<path d="M35.625 31.0195V32.707H37.5V31.0195H35.625Z" fill="#6D819B"/>
<path d="M22.5 34.3945V36.082H24.375V34.3945H22.5Z" fill="#6D819B"/>
<path d="M35.625 34.3945V36.082H37.5V34.3945H35.625Z" fill="#6D819B"/>
<path d="M17.8125 20.8008C16.2592 20.8008 15 22.06 15 23.6133V26.4258C15 26.9435 15.4197 27.3633 15.9375 27.3633C17.4908 27.3633 18.75 28.6225 18.75 30.1758C18.75 31.7291 17.4908 32.9883 15.9375 32.9883C15.4197 32.9883 15 33.408 15 33.9258V36.7383C15 38.2916 16.2592 39.5508 17.8125 39.5508H42.1875C43.7408 39.5508 45 38.2916 45 36.7383V33.9258C45 33.408 44.5803 32.9883 44.0625 32.9883C42.5092 32.9883 41.25 31.7291 41.25 30.1758C41.25 28.6225 42.5092 27.3633 44.0625 27.3633C44.5803 27.3633 45 26.9435 45 26.4258V23.6133C45 22.06 43.7408 20.8008 42.1875 20.8008H17.8125ZM16.875 23.6133C16.875 23.0955 17.2947 22.6758 17.8125 22.6758H42.1875C42.7053 22.6758 43.125 23.0955 43.125 23.6133V25.582C40.9854 26.0164 39.375 27.908 39.375 30.1758C39.375 32.4436 40.9854 34.3352 43.125 34.7695V36.7383C43.125 37.256 42.7053 37.6758 42.1875 37.6758H17.8125C17.2947 37.6758 16.875 37.256 16.875 36.7383V34.7695C19.0146 34.3352 20.625 32.4436 20.625 30.1758C20.625 27.908 19.0146 26.0164 16.875 25.582V23.6133Z" fill="#6D819B"/>
</svg>
