<svg width="60" height="61" viewBox="0 0 60 61" fill="none" xmlns="http://www.w3.org/2000/svg">
<rect y="0.175781" width="60" height="60" rx="30" fill="#EAF1FF"/>
<path fill-rule="evenodd" clip-rule="evenodd" d="M42.6804 15.3158C42.9568 15.4866 43.125 15.7884 43.125 16.1133V44.2383C43.125 44.7561 42.7053 45.1758 42.1875 45.1758H36.5625C36.0447 45.1758 35.625 44.7561 35.625 44.2383V41.4258H33.75V44.2383C33.75 44.7561 33.3303 45.1758 32.8125 45.1758H15.9375C15.4197 45.1758 15 44.7561 15 44.2383V33.9258C15 33.5223 15.2582 33.164 15.641 33.0364L26.25 29.5001V23.6133C26.25 23.2582 26.4506 22.9336 26.7682 22.7748L41.7682 15.2748C42.0589 15.1294 42.404 15.145 42.6804 15.3158ZM26.25 31.4765L16.875 34.6015V43.3008H26.25V31.4765ZM28.125 43.3008H31.875V40.4883C31.875 39.9705 32.2947 39.5508 32.8125 39.5508H36.5625C37.0803 39.5508 37.5 39.9705 37.5 40.4883V43.3008H41.25V17.6302L28.125 24.1927V43.3008Z" fill="#6D819B"/>
<path d="M18.75 35.8008H20.625V37.6758H18.75V35.8008Z" fill="#6D819B"/>
<path d="M22.5 35.8008H24.375V37.6758H22.5V35.8008Z" fill="#6D819B"/>
<path d="M18.75 39.5508H20.625V41.4258H18.75V39.5508Z" fill="#6D819B"/>
<path d="M22.5 39.5508H24.375V41.4258H22.5V39.5508Z" fill="#6D819B"/>
<path d="M30 32.0508H31.875V33.9258H30V32.0508Z" fill="#6D819B"/>
<path d="M33.75 32.0508H35.625V33.9258H33.75V32.0508Z" fill="#6D819B"/>
<path d="M30 35.8008H31.875V37.6758H30V35.8008Z" fill="#6D819B"/>
<path d="M33.75 35.8008H35.625V37.6758H33.75V35.8008Z" fill="#6D819B"/>
<path d="M37.5 32.0508H39.375V33.9258H37.5V32.0508Z" fill="#6D819B"/>
<path d="M37.5 35.8008H39.375V37.6758H37.5V35.8008Z" fill="#6D819B"/>
<path d="M30 28.3008H31.875V30.1758H30V28.3008Z" fill="#6D819B"/>
<path d="M33.75 28.3008H35.625V30.1758H33.75V28.3008Z" fill="#6D819B"/>
<path d="M37.5 28.3008H39.375V30.1758H37.5V28.3008Z" fill="#6D819B"/>
<path d="M30 24.5508H31.875V26.4258H30V24.5508Z" fill="#6D819B"/>
<path d="M33.75 24.5508H35.625V26.4258H33.75V24.5508Z" fill="#6D819B"/>
<path d="M37.5 24.5508H39.375V26.4258H37.5V24.5508Z" fill="#6D819B"/>
<path d="M37.5 20.8008H39.375V22.6758H37.5V20.8008Z" fill="#6D819B"/>
</svg>
