<svg width="60" height="61" viewBox="0 0 60 61" fill="none" xmlns="http://www.w3.org/2000/svg">
<rect y="0.175781" width="60" height="60" rx="30" fill="#EAF1FF"/>
<path d="M24.375 34.8633C24.375 34.3455 24.7947 33.9258 25.3125 33.9258H29.0625C29.5803 33.9258 30 34.3455 30 34.8633C30 35.381 29.5803 35.8008 29.0625 35.8008H25.3125C24.7947 35.8008 24.375 35.381 24.375 34.8633Z" fill="#6D819B"/>
<path d="M24.375 31.1133C24.375 30.5955 24.7947 30.1758 25.3125 30.1758H34.6875C35.2053 30.1758 35.625 30.5955 35.625 31.1133C35.625 31.631 35.2053 32.0508 34.6875 32.0508H25.3125C24.7947 32.0508 24.375 31.631 24.375 31.1133Z" fill="#6D819B"/>
<path d="M24.375 27.3633C24.375 26.8455 24.7947 26.4258 25.3125 26.4258H34.6875C35.2053 26.4258 35.625 26.8455 35.625 27.3633C35.625 27.881 35.2053 28.3008 34.6875 28.3008H25.3125C24.7947 28.3008 24.375 27.881 24.375 27.3633Z" fill="#6D819B"/>
<path d="M24.375 23.6133C24.375 23.0955 24.7947 22.6758 25.3125 22.6758H34.6875C35.2053 22.6758 35.625 23.0955 35.625 23.6133C35.625 24.131 35.2053 24.5508 34.6875 24.5508H25.3125C24.7947 24.5508 24.375 24.131 24.375 23.6133Z" fill="#6D819B"/>
<path d="M20.625 15.1758H39.375C41.4461 15.1758 43.125 16.8547 43.125 18.9258V41.4258C43.125 43.4969 41.4461 45.1758 39.375 45.1758H20.625C18.5539 45.1758 16.875 43.4968 16.875 41.4258V39.5508H18.75V41.4258C18.75 42.4613 19.5895 43.3008 20.625 43.3008H39.375C40.4105 43.3008 41.25 42.4613 41.25 41.4258V18.9258C41.25 17.8902 40.4105 17.0508 39.375 17.0508H20.625C19.5895 17.0508 18.75 17.8902 18.75 18.9258V20.8008H16.875V18.9258C16.875 16.8547 18.5539 15.1758 20.625 15.1758Z" fill="#6D819B"/>
<path d="M16.875 24.5508V23.6133C16.875 23.0955 17.2947 22.6758 17.8125 22.6758C18.3303 22.6758 18.75 23.0955 18.75 23.6133V24.5508H19.6875C20.2053 24.5508 20.625 24.9705 20.625 25.4883C20.625 26.006 20.2053 26.4258 19.6875 26.4258H15.9375C15.4197 26.4258 15 26.006 15 25.4883C15 24.9705 15.4197 24.5508 15.9375 24.5508H16.875Z" fill="#6D819B"/>
<path d="M16.875 30.1758V29.2383C16.875 28.7205 17.2947 28.3008 17.8125 28.3008C18.3303 28.3008 18.75 28.7205 18.75 29.2383V30.1758H19.6875C20.2053 30.1758 20.625 30.5955 20.625 31.1133C20.625 31.631 20.2053 32.0508 19.6875 32.0508H15.9375C15.4197 32.0508 15 31.631 15 31.1133C15 30.5955 15.4197 30.1758 15.9375 30.1758H16.875Z" fill="#6D819B"/>
<path d="M16.875 35.8008V34.8633C16.875 34.3455 17.2947 33.9258 17.8125 33.9258C18.3303 33.9258 18.75 34.3455 18.75 34.8633V35.8008H19.6875C20.2053 35.8008 20.625 36.2205 20.625 36.7383C20.625 37.256 20.2053 37.6758 19.6875 37.6758H15.9375C15.4197 37.6758 15 37.256 15 36.7383C15 36.2205 15.4197 35.8008 15.9375 35.8008H16.875Z" fill="#6D819B"/>
</svg>
