<svg width="60" height="61" viewBox="0 0 60 61" fill="none" xmlns="http://www.w3.org/2000/svg">
<rect y="0.175781" width="60" height="60" rx="30" fill="#EAF1FF"/>
<path d="M43.125 41.4258C43.125 41.4258 45 41.4258 45 39.5508C45 37.6758 43.125 32.0508 35.625 32.0508C28.125 32.0508 26.25 37.6758 26.25 39.5508C26.25 41.4258 28.125 41.4258 28.125 41.4258H43.125ZM28.1669 39.5508C28.1604 39.55 28.1513 39.5488 28.1403 39.547C28.1351 39.5461 28.13 39.5452 28.125 39.5443C28.1277 39.0492 28.4379 37.6137 29.5486 36.3179C30.5875 35.1058 32.405 33.9258 35.625 33.9258C38.845 33.9258 40.6625 35.1058 41.7014 36.3179C42.8121 37.6137 43.1223 39.0492 43.125 39.5443C43.12 39.5452 43.1149 39.5461 43.1097 39.547C43.0987 39.5488 43.0896 39.55 43.0831 39.5508H28.1669Z" fill="#6D819B"/>
<path d="M35.625 28.3008C37.6961 28.3008 39.375 26.6218 39.375 24.5508C39.375 22.4797 37.6961 20.8008 35.625 20.8008C33.5539 20.8008 31.875 22.4797 31.875 24.5508C31.875 26.6218 33.5539 28.3008 35.625 28.3008ZM41.25 24.5508C41.25 27.6574 38.7316 30.1758 35.625 30.1758C32.5184 30.1758 30 27.6574 30 24.5508C30 21.4442 32.5184 18.9258 35.625 18.9258C38.7316 18.9258 41.25 21.4442 41.25 24.5508Z" fill="#6D819B"/>
<path d="M28.0049 32.5757C27.3152 32.3551 26.5491 32.1948 25.6993 32.1128C25.2787 32.0722 24.8375 32.0508 24.375 32.0508C16.875 32.0508 15 37.6758 15 39.5508C15 40.8008 15.625 41.4258 16.875 41.4258H24.7807C24.5167 40.8931 24.375 40.2617 24.375 39.5508C24.375 37.6565 25.0823 35.7221 26.4184 34.1061C26.8749 33.5541 27.4047 33.0391 28.0049 32.5757ZM24.2251 33.9266C23.1048 35.6388 22.5 37.5908 22.5 39.5508H16.875C16.875 39.0619 17.183 37.6195 18.2986 36.3179C19.3213 35.1248 21.0984 33.9627 24.2251 33.9266Z" fill="#6D819B"/>
<path d="M17.8125 25.4883C17.8125 22.3817 20.3309 19.8633 23.4375 19.8633C26.5441 19.8633 29.0625 22.3817 29.0625 25.4883C29.0625 28.5949 26.5441 31.1133 23.4375 31.1133C20.3309 31.1133 17.8125 28.5949 17.8125 25.4883ZM23.4375 21.7383C21.3664 21.7383 19.6875 23.4172 19.6875 25.4883C19.6875 27.5593 21.3664 29.2383 23.4375 29.2383C25.5086 29.2383 27.1875 27.5593 27.1875 25.4883C27.1875 23.4172 25.5086 21.7383 23.4375 21.7383Z" fill="#6D819B"/>
</svg>
