<svg xmlns="http://www.w3.org/2000/svg" fill="none" viewBox="0 0 443 399"><path d="M184.76 232.54c-8.18 11.13 4.04 31.55 14.45 55.31a349.71 349.71 0 0 1 20 60.1c5-2.9 9.9-5.78 14.9-8.66a247.76 247.76 0 0 0-17.83-87.75l12-6.55c.14-3.57-.1-10.94-4.2-18.88a37.94 37.94 0 0 0-9.83-12.03 87.32 87.32 0 0 0-15.64 7.7c-4.28 2.69-10.8 6.75-13.73 10.76Z" fill="#fff"/><path d="m218.58 349.33-.28-1.18a351.23 351.23 0 0 0-19.91-59.93c-1.8-4.1-3.7-8.08-5.5-11.93-8.6-18.6-16-34.64-8.95-44.28 3.04-4.14 9.62-8.26 13.97-10.98a87.51 87.51 0 0 1 15.81-7.8l.48-.17.41.33a38.31 38.31 0 0 1 10.08 12.2 39.05 39.05 0 0 1 4.31 19.33l-.02.5-11.75 6.43a249.3 249.3 0 0 1 17.63 87.3v.53l-16.35 9.54Zm-33.1-116.26c-6.46 8.78.76 24.4 9.11 42.47 1.8 3.86 3.64 7.86 5.43 11.96a352.87 352.87 0 0 1 19.74 59.07l13.38-7.8a247.33 247.33 0 0 0-17.79-86.9l-.3-.73 12.25-6.7a37.2 37.2 0 0 0-4.12-17.91 36.75 36.75 0 0 0-9.2-11.43 85.4 85.4 0 0 0-15 7.45c-4.26 2.65-10.66 6.66-13.5 10.52Z" fill="#3E4957"/><path d="M256.56 196.6c-12.21.77-22.1 3.67-45.97 13.03l-2.97 1.16c6.56 11.54 13.6 22.79 20.56 34.2l41.28-48.34a98.6 98.6 0 0 0-12.9-.04Z" fill="#16B054"/><path d="M186.06 248.08c-16.28 8.77-23.87 31.21-33.52 56.84a1495.4 1495.4 0 0 1-23.15 57.77l12.85 2.78a174.88 174.88 0 0 0 19.69-22.78 179.2 179.2 0 0 0 28.77-62.85l52.8-17.72a218.22 218.22 0 0 1-20.35-30.77 372.01 372.01 0 0 0-37.1 16.62Z" fill="#fff"/><path d="m142.53 366.44-14.38-3.11.42-1a1510.2 1510.2 0 0 0 23.14-57.73l1.7-4.44c8.99-23.84 16.7-44.44 32.3-52.86a375.66 375.66 0 0 1 37.2-16.67l.75-.3.38.7a215.55 215.55 0 0 0 20.28 30.64l.79 1-53.54 17.97a179.2 179.2 0 0 1-28.8 62.58 176.5 176.5 0 0 1-19.8 22.89l-.32.33Zm-11.9-4.4 11.33 2.45a175.06 175.06 0 0 0 19.25-22.32 177.52 177.52 0 0 0 28.62-62.44l.12-.47 52.07-17.49a220.66 220.66 0 0 1-19.28-29.2 372.55 372.55 0 0 0-36.26 16.3c-15.03 8.1-22.63 28.4-31.43 51.91l-1.67 4.44c-6.95 18.49-14.6 37.6-22.74 56.8ZM316.25 37.5c2.12.31 3.79 1.3 4.93 2.17 1.5-.4 3.7-.83 6.3-.55 12.46 1.31 19.45 16.94 20.66 19.63 7.12 15.9-1.14 23.32 1.6 39.75 4.98 30.06 35.16 34.28 33.92 55.3-.9 15.31-17.8 27.65-31.74 31.73-22.65 6.64-44.85-6.32-55.27-21.22-8.08-11.55-8.52-23.45-9.13-40.26-1-27.12 8.13-29.13 7.25-55.26-.15-4.58-.3-12.5 4.43-20.1.47-.8 8.05-12.7 17.05-11.3Z" fill="#3E4957"/><path d="m315.51 84.37-5.12 27.05 25.26-.97a77.73 77.73 0 0 1-7.31-28.22c-4.27.72-8.55 1.43-12.82 2.13Z" fill="#fff"/><path d="m309.3 112.35 5.45-28.76 14.42-2.4.06.99a76.88 76.88 0 0 0 7.23 27.9l.58 1.22-27.74 1.05Zm6.98-27.2-4.8 25.33 22.8-.87a78.77 78.77 0 0 1-6.76-26.33l-11.24 1.87Z" fill="#3E4957"/><path d="M268.74 190.01a1924.8 1924.8 0 0 1-55.48 38.54c8.84 15.4 18.38 29.68 27.28 43.96 18.04-6.47 29.66-8.85 44.07-18.88a103.3 103.3 0 0 0 22.73-21.83l-38.6-41.8Zm63.7-67.55c2.49 8.79-8.29 18.3-29.93 36.98-20.33 17.56-30.67 26.4-41.62 26.6-13.73.26-25.16-7.97-33.94-14.29a90.12 90.12 0 0 1-19.85-19.66l7.53-15.4 45.72 21a883.31 883.31 0 0 1 21.5-21.27c22.48-21.48 28.94-25.36 36.17-24.45 5.84.74 12.77 4.68 14.41 10.5Z" fill="#16B054"/><path d="M307.5 233.02a9.48 9.48 0 0 0 13.37-3.73c8.66-16.8 19.27-43.9 19.14-78a165.43 165.43 0 0 0-8.2-50.7c-14.32 6.36-18.32 7-18.9 6.06-.2-.3-.85-2.17-.85-2.17a275.44 275.44 0 0 0-64.46 87.08c-1 2.14-.24 4.7 1.78 5.93l58.13 35.5Z" fill="#16B054"/><path d="M331.5 88.03c-4.33 6.9-16.27 9.49-23.52 4.74-3.3-2.16-4.84-5.34-5.6-6.88-2.06-4.23-1.9-7.87-1.65-13.82.33-8.1 2.1-13.37 4.05-15.52 1.35-1.5 3.97-3.39 5.26-3.8l.13-.03c5.67-1.77 7.45-3.42 9.4-3.23 2.83.26 2.44 4.03 7.42 8.94.25.24 1.28.98 2.58 2.14a60.22 60.22 0 0 0 2.47 2.4c3.47 3.66 1.5 16.3 1.5 16.3-.78 4.92-1.16 7.37-2.03 8.76Z" fill="#fff"/><path d="M316.73 96.08c-3.43 0-6.66-.88-9.24-2.57-3.5-2.29-5.13-5.62-5.9-7.23-2.2-4.42-2-8.3-1.8-14.17v-.08c.3-7.45 1.9-13.46 4.22-16.08 1.5-1.63 4.23-3.6 5.66-4.04l.13-.05c2.54-.79 4.25-1.54 5.63-2.14 1.7-.75 2.84-1.25 4.13-1.13 1.94.19 2.72 1.6 3.7 3.4.88 1.57 1.96 3.53 4.26 5.8l.5.4c.48.39 1.21.96 2.05 1.72a40.75 40.75 0 0 0 2.5 2.44c3.67 3.87 1.94 15.73 1.73 17.07-.8 5.02-1.19 7.54-2.17 9.09-2.16 3.44-6.17 6.02-11 7.08-1.52.33-3.04.5-4.52.5Zm2.55-45.72c-.78 0-1.66.39-3.04 1-1.34.58-3.18 1.39-5.81 2.21l-.12.04c-1.03.32-3.53 2.05-4.87 3.53-1.62 1.8-3.48 6.67-3.82 14.97v.07c-.24 5.8-.39 9.3 1.56 13.3.72 1.47 2.2 4.5 5.29 6.53 3.3 2.17 7.82 2.83 12.4 1.83 4.36-.96 7.96-3.25 9.87-6.3.77-1.23 1.17-3.78 1.9-8.41.53-3.4 1.34-12.82-1.26-15.56-.7-.73-1.59-1.58-1.6-1.58l-.81-.76c-.8-.72-1.5-1.27-1.97-1.64-.32-.26-.52-.41-.65-.54-2.48-2.44-3.68-4.62-4.56-6.21-.93-1.7-1.34-2.38-2.3-2.47l-.22-.01Z" fill="#3E4957"/><path d="M321.77 73.65c.32-1.61-.2-3.07-1.15-3.26-.95-.2-1.99.96-2.31 2.57-.32 1.62.2 3.08 1.15 3.27.95.2 1.99-.96 2.31-2.58Zm-13.53-3.15c.32-1.62-.2-3.08-1.15-3.27-1-.19-2 .96-2.4 2.58-.34 1.61.2 3.08 1.13 3.27.97.19 2.01-.97 2.33-2.58Zm9.38 14.45c.24.65-3.68 4.02-7.01 2.82-2.37-.85-3.72-3.74-3.27-4.22.3-.33 1.3.62 3.35 1.23 3.9 1.15 6.74-.36 6.93.17Zm8-15.69a.54.54 0 0 1-.42-.22 5.32 5.32 0 0 0-2.2-1.74 5.51 5.51 0 0 0-3.81-.13.54.54 0 1 1-.34-1.02 6.36 6.36 0 0 1 7.2 2.25.54.54 0 0 1-.44.86ZM310.35 66a.54.54 0 0 1-.4-.19 5.3 5.3 0 0 0-6.17-1.18.54.54 0 0 1-.45-.97 6.36 6.36 0 0 1 7.4 1.43.54.54 0 0 1-.38.9Zm1.3 10.73c-.96 1.16-2.07 1.78-1.94 2.78.2 1.58 3.3 2.25 3.24 2.4-.07.2-4.12-.34-4.5-2.1-.3-1.38 1.93-2.1 3.6-5.02 1.98-3.46 1.4-6.9 1.46-6.9.1 0 1.08 5.33-1.85 8.84Z" fill="#3E4957"/><path d="M124.42 367.58c1.28-3.28 11.62-29.84 15.24-35.15.4-.58.98-1.3 1.9-1.58 2.7-.8 4.75 3.22 8.9 5.38 6.6 3.43 13.07-.77 14.65 1.86 1.2 2-1.72 5.8-2.55 6.9-4.72 6.2-11.02 15.7-19.75 31.6-5.32 2.6-11.29 1.91-14.93-1.55-2.84-2.7-3.34-6.27-3.46-7.57Z" fill="#16B054"/><path d="m139.62 391.85-57.28-20.68c.17-.45.47-1.14.97-1.9 3.36-5.22 10.58-4 21.9-5.66 11.5-1.6 18.5-4.9 20.21-2.2.84 1.36-.55 2.67.43 4.9.5 1.1 1.8 2.96 7.94 4.61 7.7 2.07 10.56.45 12.15 2.15 1.64 1.76 1.36 6.43-6.32 18.88Z" fill="#fff"/><path d="M140 392.94 81.17 371.7l.33-.85c.28-.74.64-1.43 1.05-2.08 2.7-4.17 7.57-4.58 14.3-5.16a129 129 0 0 0 8.22-.8c4.06-.6 7.6-1.4 10.46-2.04 5.74-1.3 9.2-2.1 10.65.18.57.9.43 1.8.3 2.58a3.8 3.8 0 0 0 .19 2.4c.26.6 1.06 2.44 7.35 4.1a32.45 32.45 0 0 0 8.3 1.2c1.88.08 3.25.1 4.27 1.23 2.5 2.67.54 9-6.2 19.94l-.4.62Zm-56.46-22.28 55.7 20.1c7.58-12.43 7.05-16.1 6.04-17.17-.5-.54-1.29-.6-3.03-.65-1.86-.07-4.66-.17-8.7-1.25-6.37-1.71-7.92-3.74-8.53-5.13-.62-1.41-.43-2.56-.3-3.4.1-.67.15-1.01-.06-1.34-.76-1.2-4.28-.4-8.74.61a132.9 132.9 0 0 1-10.6 2.07c-3.07.44-5.86.68-8.32.9-6.46.55-10.73.92-12.95 4.35-.19.3-.36.6-.52.9Z" fill="#3E4957"/><path d="m126.47 376.66-1.98-2.28-8.23 8.93 1.98 2.3 8.23-8.95Zm6.55.94-1.99-2.3-9.89 10.74 1.99 2.29 9.89-10.73Z" fill="#16B054"/><path d="M139.35 390.8 82.1 370.11a3.1 3.1 0 0 0-3.98 1.87l-.37 1.02a3.1 3.1 0 0 0 1.87 3.97l57.25 20.67a3.1 3.1 0 0 0 3.98-1.87l.37-1a3.1 3.1 0 0 0-1.87-3.99Zm-27.05-18.08-1-.54c.1-.18 2.3-4.5-2.06-7.83l.68-.9a7.37 7.37 0 0 1 2.38 9.26Zm-7.16-.33-1-.6c.1-.2 2.3-4.5-2.06-7.87l.69-.9a7.37 7.37 0 0 1 2.38 9.26Z" fill="#3E4957"/><path d="m131.46 388.61-1.05-.42c.05-.12 4.82-11.51 15.14-10.52l-.11 1.13c-9.5-.91-13.94 9.7-13.98 9.82Zm20.04-43.25c-1.28 0-2.58-.11-3.88-.32a.72.72 0 1 1 .23-1.41 21.71 21.71 0 0 0 15.45-3.25c-.45.02-1.03.1-1.58.15-2.57.29-6.47.72-10.88-.28a26.05 26.05 0 0 1-10.9-5.51.72.72 0 0 1-.1-1 .7.7 0 0 1 1-.1c3.2 2.64 6.67 4.4 10.3 5.22 4.19.94 7.95.52 10.43.24 2.12-.23 3.28-.36 3.57.63.57 1.97-5.8 4.28-7.41 4.74-2.02.59-4.1.88-6.23.88Z" fill="#3E4957"/><path d="M221.25 358.93c-1.18-3.32-10.7-30.18-11.42-36.57-.08-.7-.1-1.62.41-2.44 1.52-2.38 5.7-.66 10.24-1.74 7.25-1.72 9.4-9.11 12.32-8.16 2.22.73 2.49 5.52 2.58 6.9.48 7.77 1.96 19.14 5.73 36.88-2.22 5.43-7.17 8.84-12.2 8.6a12 12 0 0 1-7.56-3.47Z" fill="#16B054"/><path d="m248.62 367.38-56.88 21.76a10.6 10.6 0 0 1-.52-2.08c-.85-6.14 5.4-9.95 12.89-18.58 7.62-8.78 10.78-15.85 13.83-14.93 1.5.46 1.3 2.36 3.5 3.4 1.1.53 3.3 1.08 9.03-1.68 7.2-3.47 8.3-6.56 10.6-6.31 2.4.26 5.23 3.98 7.55 18.42Z" fill="#fff"/><path d="m191.2 390.3-.3-.86a11.3 11.3 0 0 1-.56-2.25c-.68-4.93 2.73-8.42 7.45-13.26a134.6 134.6 0 0 0 5.64-6.04c2.69-3.1 4.85-6.02 6.59-8.37 3.5-4.74 5.6-7.6 8.17-6.82 1.04.31 1.5 1.07 1.92 1.75.5.65.8 1.26 1.8 1.7.6.28 2.4 1.14 8.26-1.69 3.59-1.73 5.6-3.34 7.07-4.51 1.48-1.19 2.54-2.04 4.04-1.88 3.65.4 6.3 6.48 8.33 19.17l.1.71-58.4 22.35Zm26.2-35.93c-1.36 0-3.4 2.77-5.94 6.21a132.3 132.3 0 0 1-6.68 8.48c-2.03 2.36-4 4.36-5.71 6.12-4.53 4.64-7.53 7.7-6.96 11.76l.3 1.02 55.3-21.16c-2.37-14.36-5.16-16.8-6.63-16.95-.73-.08-1.37.4-2.73 1.48a35.02 35.02 0 0 1-7.41 4.74c-5.96 2.87-8.46 2.34-9.82 1.7-1.4-.67-2-1.66-2.45-2.38-.36-.58-.55-.87-.92-.98a.95.95 0 0 0-.28 0Z" fill="#3E4957"/><path d="m228.74 364.46-3-.43-.39 12.14 3 .44.4-12.15Zm5.57-3.56-3-.44-.48 14.59 3 .44.48-14.6Z" fill="#16B054"/><path d="m247.74 366.73-56.85 21.75a3.1 3.1 0 0 0-1.8 4.01l.3 1.01a3.1 3.1 0 0 0 4 1.8l56.85-21.76a3.1 3.1 0 0 0 1.8-4.01l-.4-1a3.1 3.1 0 0 0-4-1.8Zm-32.3 4-1.11.26a6.16 6.16 0 0 0-6.7-4.58l-.06-1.13a7.37 7.37 0 0 1 7.86 5.46Zm-5.63 4.44-1.1.25a6.16 6.16 0 0 0-6.7-4.58l-.07-1.13a7.37 7.37 0 0 1 7.86 5.46Z" fill="#3E4957"/><path d="m240.32 370.25-1.07.37c-.04-.12-3.87-11.86 4.6-17.85l.65.92c-7.78 5.5-4.21 16.45-4.18 16.56Zm-16.6-43.44a.72.72 0 0 1-.38-1.32 21.45 21.45 0 0 0 6.85-6.59 20.71 20.71 0 0 0 2.73-5.96c-.31.3-.71.74-1.09 1.14-1.76 1.9-4.43 4.78-8.42 6.9a26.04 26.04 0 0 1-11.85 2.95.71.71 0 1 1-.03-1.43 24.65 24.65 0 0 0 11.21-2.77c3.78-2.02 6.35-4.79 8.05-6.62 1.4-1.56 2.2-2.42 3.1-1.86 1.7 1.12-1.6 7.03-2.6 8.43a22.88 22.88 0 0 1-7.29 7.03.72.72 0 0 1-.37.1Zm16.25-54.31a.9.9 0 0 1-.77-.44 1396.46 1396.46 0 0 0-26.69-43.03l-.5-.78.8-.47a307.4 307.4 0 0 1 49.58-22.86l.4-.14.37.22a1936.82 1936.82 0 0 0 31.05 18.8.9.9 0 0 1-.9 1.53 2156.54 2156.54 0 0 1-30.72-18.58 305.48 305.48 0 0 0-48.1 22.11c1.7 2.7 3.5 5.43 5.2 8.14a1388.9 1388.9 0 0 1 21 34.15.9.9 0 0 1-.8 1.35Zm-27.59-52.62a.9.9 0 0 1-.77-.44l-5.2-9.05.9-.41a179.1 179.1 0 0 1 40.88-13.23l.4-.08.3.24a64.22 64.22 0 0 0 8.3 5.26.9.9 0 1 1-.84 1.57 65.2 65.2 0 0 1-8.2-5.17 175.28 175.28 0 0 0-39.17 12.62l4.26 7.35a.9.9 0 0 1-.76 1.34Z" fill="#3E4957"/><path d="m264.24 245.92-9.55-15.36 17.25-4.91a.9.9 0 1 1 .49 1.72l-14.97 4.26 7.3 11.73 12.73-9.1a.9.9 0 0 1 1.04 1.45l-14.29 10.2v.1Zm.32-57.64c-1.2 0-2.42-.06-3.65-.17-6.7-.64-11.53-2.91-17.62-5.8-14.2-6.7-26.6-16.68-36.9-29.67l-.4-.44 7.73-15.9a.9.9 0 0 1 1.6.78l-7.27 14.89c10.08 12.56 22.15 22.23 35.9 28.73 6.18 2.92 10.64 5.03 17.03 5.63 20.83 1.97 37.1-14.36 46.82-24.12 9.12-9.15 24.38-24.47 19.87-37.05-1.68-4.67-6.54-9.94-12.58-10.96-5.16-.88-11.03 1-44.11 33.97-3.21 3.2-6.44 6.44-9.6 9.66a19.28 19.28 0 0 1 2.3 13.86.9.9 0 0 1-1.74-.37 17.56 17.56 0 0 0-2.43-13.13l-.4-.6.5-.51a1381 1381 0 0 1 10.1-10.18c32.65-32.51 39.25-35.55 45.68-34.46 7.04 1.2 12.17 7.12 13.96 12.12 4.91 13.65-10.85 29.47-20.27 38.92-9.38 9.42-24.72 24.8-44.6 24.8Z" fill="#3E4957"/><path d="M206.35 151.38a577.38 577.38 0 0 0 7.51-14.2 24.37 24.37 0 0 1-6.2-6.29s-3.31-5.6-5.74-7.3c-1.47-1.04-1.61-.69-4.63-2.15-5.47-2.67-7.57-5.1-8.33-4.47-.73.6.5 3.3 1.4 4.75a12.6 12.6 0 0 0 4.96 4.53c-.17.08-1.58.72-1.92 2.21-.16.73 0 1.34.1 1.66-.15.03-1.69.44-2.33 1.98-.72 1.75.38 3.27.43 3.35-.64.45-1.48 1.18-1.53 2.14-.13 2.13 3.7 3.62 7.55 6.1 2.38 1.53 5.5 3.9 8.72 7.6Z" fill="#fff"/><path d="m206.51 152.93-.84-.96a40.32 40.32 0 0 0-8.53-7.44 62.6 62.6 0 0 0-2.79-1.68c-2.96-1.72-5.3-3.08-5.17-5.22.04-.83.47-1.6 1.27-2.32a4.37 4.37 0 0 1-.1-3.45 4.26 4.26 0 0 1 2.12-2.2 3.8 3.8 0 0 1 1.2-3.25 13.25 13.25 0 0 1-4.07-4.13c-.66-1.07-2.7-4.68-1.2-5.9.9-.75 1.92-.07 3.62 1.05 1.3.87 3.1 2.05 5.66 3.3 1.35.66 2.1.94 2.66 1.15.7.26 1.2.45 2.1 1.06 2.5 1.75 5.7 7.03 5.97 7.47a22.96 22.96 0 0 0 5.96 6.04l.64.45-.36.69a582.4 582.4 0 0 1-7.52 14.22l-.62 1.12Zm-16.84-34.87c.16.73.71 2.08 1.46 3.3a11.7 11.7 0 0 0 4.6 4.2l1.68.86-1.73.75c-.12.05-1.17.53-1.4 1.59-.11.47-.02.9.08 1.16l.32.93-.96.23c-.13.04-1.26.34-1.72 1.46-.53 1.27.28 2.42.32 2.47l.54.74-.75.52c-.73.5-1.13 1.02-1.16 1.46-.06 1.05 2.06 2.27 4.3 3.57.92.54 1.87 1.09 2.85 1.72 2.9 1.87 5.6 4.16 8.06 6.82a586.06 586.06 0 0 0 6.55-12.38 25.27 25.27 0 0 1-5.8-6.07l-.02-.1c-.04-.1-3.24-5.4-5.48-6.98-.7-.5-1.03-.63-1.69-.87-.6-.2-1.4-.5-2.83-1.2-2.67-1.3-4.59-2.58-5.86-3.4-.47-.34-1-.68-1.37-.9Z" fill="#3E4957"/><path d="M164.74 111.37a273.66 273.66 0 0 1-132.2-25.76 29.15 29.15 0 0 1-10.24-9.86c-.95-1.5-3.26-.82-3.25.94l.08 57.68v28.5a9.17 9.17 0 0 0 4.32 7.8 214.42 214.42 0 0 0 50.04 22.82c37.72 11.6 71.14 10.39 92.98 7.47a9.19 9.19 0 0 0 7.97-9.11v-71.3a9.18 9.18 0 0 0-9.7-9.17Z" fill="#16B054"/><path d="M127.24 245.37a197.5 197.5 0 0 1-47.89-3.35 193.03 193.03 0 0 1-40.15-12.46 18.44 18.44 0 0 1-6.82-6.05c-.62-.91-2.16-.5-2.16.58l.05 35.38v17.47a5.54 5.54 0 0 0 2.88 4.78 148.76 148.76 0 0 0 33.33 14 157.06 157.06 0 0 0 61.9 4.58c3.04-.38 5.31-2.77 5.31-5.59v-43.7c0-3.25-2.94-5.8-6.45-5.64ZM344 231.08c8.04.57 30.2-.8 42.1-3.94a101.13 101.13 0 0 0 25.49-10.73c.5-.38 1.1-.85 1.6-1.42a14.85 14.85 0 0 0 2.64-3.8c.4-.79 1.37-.43 1.37.5l-.03 30.5v15.07c0 1.68-.7 3.24-1.84 4.12a83.5 83.5 0 0 1-21.18 12.07c-15.94 6.15-41.76 6.55-51 5-1.92-.32-3.36-2.38-3.36-4.8v-37.7c0-2.8 1.88-5.03 4.1-4.87ZM267.16 52.96a3.71 3.71 0 0 1-4.5 3.36 138.17 138.17 0 0 0-42.85-2.79 139 139 0 0 0-53.95 16.55 3.72 3.72 0 0 1-5.49-3.52l3.24-46a3.7 3.7 0 0 1 2.1-3.08A178.48 178.48 0 0 1 267.3 1.7c1.94.27 3.33 2 3.2 3.95l-3.33 47.3Z" fill="#fff"/><path d="M149.74 88.55a2.94 2.94 0 0 1-2.94-3.06l.84-20.98a2.95 2.95 0 0 1 1.6-2.4 82.48 82.48 0 0 1 46.72-8.7 2.95 2.95 0 0 1 2.63 3.04L197.73 78a2.96 2.96 0 0 1-3.5 2.77 61.56 61.56 0 0 0-43 7.44c-.45.27-.97.4-1.48.4h-.01Zm37.3-33.23a79.71 79.71 0 0 0-36.66 8.92.44.44 0 0 0-.24.37l-.84 20.98c-.02.22.12.34.2.4.1 0 .26.1.46-.1a64.12 64.12 0 0 1 44.74-7.75.43.43 0 0 0 .52-.4l.87-21.59a.44.44 0 0 0-.4-.45 80.6 80.6 0 0 0-8.65-.46Z" fill="#16B054"/><path d="M145.49 138.27a283.88 283.88 0 0 1-105.06-19.86 1.78 1.78 0 1 1 1.32-3.33 280.78 280.78 0 0 0 30.81 10.15 284.47 284.47 0 0 0 84.13 9.25c.99-.05 1.82.73 1.85 1.72.04.98-.73 1.81-1.7 1.85-3.8.15-7.57.22-11.35.22Zm0 19.74a286.9 286.9 0 0 1-73.85-9.58 284.38 284.38 0 0 1-31.2-10.28 1.78 1.78 0 1 1 1.3-3.32 282.38 282.38 0 0 0 30.82 10.15 284.6 284.6 0 0 0 84.13 9.25 1.79 1.79 0 0 1 .14 3.57c-3.78.14-7.57.21-11.34.21Zm0 19.74a286.9 286.9 0 0 1-73.85-9.58 284.38 284.38 0 0 1-31.2-10.28 1.78 1.78 0 1 1 1.3-3.33 282.16 282.16 0 0 0 30.82 10.16 284.5 284.5 0 0 0 84.13 9.25c.99-.06 1.82.72 1.85 1.7.04 1-.73 1.83-1.7 1.86-3.8.15-7.58.22-11.35.22Z" fill="#3E4957"/><path d="M351.45 248.13c-2.02 0-3.2-.02-3.25-.03a1.25 1.25 0 0 1 .06-2.5c15.2.36 55.83-1.29 61.11-13.08a1.25 1.25 0 0 1 1.65-.63c.63.17.92.9.63 1.54-3 6.7-14.67 11.2-34.69 13.33a253.52 253.52 0 0 1-25.51 1.26Zm1.06 15.38c-2.02 0-3.2-.02-3.25-.02a1.25 1.25 0 1 1 .06-2.5c15.21.35 55.83-1.3 61.12-13.1a1.25 1.25 0 0 1 2.28 1c-3 6.7-14.68 11.2-34.7 13.3a253.17 253.17 0 0 1-25.5 1.23Zm-237.07.06c-16.56 0-69.41-1.47-77.17-19.88a1.25 1.25 0 0 1 2.3-.97c3.4 8.1 18.17 13.83 42.69 16.6 18.8 2.13 36.8 1.7 36.97 1.7a1.25 1.25 0 1 1 .06 2.5c-.4 0-2.15.05-4.85.05Zm-1.38 21.2c-16.57 0-69.41-1.46-77.17-19.88a1.25 1.25 0 1 1 2.3-.96c3.4 8.09 18.17 13.83 42.69 16.6 18.8 2.12 36.79 1.7 36.97 1.7.7-.04 1.27.52 1.28 1.21.02.7-.52 1.27-1.21 1.29-.42 0-2.16.05-4.86.05ZM181.6 28.8a1.25 1.25 0 0 1-.47-2.42A148.74 148.74 0 0 1 254 16.82a1.25 1.25 0 1 1-.3 2.48 146.44 146.44 0 0 0-71.64 9.4c-.14.06-.3.1-.45.1Zm0 18.26a1.25 1.25 0 0 1-.47-2.4A148.75 148.75 0 0 1 254 35.08a1.25 1.25 0 1 1-.3 2.5 146.43 146.43 0 0 0-71.64 9.4c-.14.05-.3.08-.45.08Zm-152 67.54a2.74 2.74 0 1 0 0-5.48 2.74 2.74 0 0 0 0 5.48Zm0 19.58a2.74 2.74 0 1 0 0-5.47 2.74 2.74 0 0 0 0 5.47Zm0 19.59a2.74 2.74 0 1 0 0-5.48 2.74 2.74 0 0 0 0 5.4Z" fill="#16B054"/><path d="M321.84 228.28a.9.9 0 0 1-.8-1.3 164.87 164.87 0 0 0 15.68-47.23c4.4-25.9 2.4-53.16-5.76-78.8a.9.9 0 0 1 1.7-.54c8.25 25.91 10.26 53.45 5.8 79.64a166.7 166.7 0 0 1-15.83 47.74.9.9 0 0 1-.8.4ZM43.27 80.42a1.07 1.07 0 0 1-.74-1.84c1.08-1.04 2.18-2.07 3.28-3.08a1.07 1.07 0 1 1 1.45 1.6c-1.1.98-2.18 2-3.24 3.02-.2.2-.48.3-.75.3Zm10.25-9.06a1.07 1.07 0 0 1-.67-1.9c2.39-1.95 4.87-3.85 7.36-5.65a1.07 1.07 0 0 1 1.26 1.8c-2.46 1.8-4.9 3.69-7.27 5.6-.2.17-.44.25-.67.25Zm14.94-10.8a1.07 1.07 0 0 1-.58-1.97c2.6-1.67 5.27-3.27 7.96-4.78.5-.3 1.17-.1 1.46.4.29.52.1 1.17-.4 1.47a164.53 164.53 0 0 0-7.86 4.7 1.1 1.1 0 0 1-.57.18h-.01Zm16.06-9.03a1.07 1.07 0 0 1-.47-2.03 160.8 160.8 0 0 1 8.45-3.85 1.07 1.07 0 0 1 .83 1.98 162 162 0 0 0-8.34 3.79c-.15.07-.3.1-.47.1Zm16.99-7.15a1.1 1.1 0 0 1-1-.72c-.2-.55.1-1.17.7-1.37 2.9-1.03 5.9-2 8.87-2.85a1.07 1.07 0 1 1 .6 2.05c-2.92.86-5.85 1.8-8.72 2.83-.12.04-.24.06-.36.06Zm17.7-5.2a1.07 1.07 0 0 1-.2-2.11c3-.7 6.09-1.33 9.1-1.86a1.07 1.07 0 0 1 .4 2.1c-3 .54-6.02 1.15-8.98 1.84-.08.02-.17.03-.25.03Zm18.2-3.2a1.07 1.07 0 0 1-.1-2.13c1.48-.16 2.98-.32 4.48-.46a1.07 1.07 0 1 1 .2 2.13 174.01 174.01 0 0 0-4.54.47ZM26.5 256.21h-.12a25.05 25.05 0 0 1-8.87-2.77 1.07 1.07 0 0 1 1-1.9 23.1 23.1 0 0 0 8.1 2.53 1.07 1.07 0 0 1-.1 2.14Zm-15.12-8.5c-.34 0-.67-.1-.88-.4a20.87 20.87 0 0 1-3.45-8.64c-.1-.6.3-1.14.88-1.23.59-.1 1.14.3 1.23.87a18.6 18.6 0 0 0 3.1 7.8 1.07 1.07 0 0 1-.88 1.68Zm-3-17.1h-.22c-.58-.1-.94-.7-.82-1.22.65-3 1.82-5.88 3.46-8.57a1.07 1.07 0 1 1 1.83 1.09 25.9 25.9 0 0 0-3.2 7.89c-.1.5-.55.86-1.04.86Zm417.99 8.9a1.07 1.07 0 0 1-.52-2 28.4 28.4 0 0 0 6.86-5.1 1.07 1.07 0 0 1 1.53 1.5 30.6 30.6 0 0 1-7.38 5.53 1 1 0 0 1-.5.12Zm12.27-12.52a1.07 1.07 0 0 1-.96-1.55 24.6 24.6 0 0 0 2.43-8.16 1.07 1.07 0 1 1 2.13.24 26.74 26.74 0 0 1-2.64 8.87c-.18.38-.56.6-.96.6Zm1.84-17.37c-.46 0-.9-.3-1.03-.77-.75-2.71-2-5.28-3.73-7.63a1.07 1.07 0 1 1 1.73-1.27 25.7 25.7 0 0 1 4.07 8.33 1.07 1.07 0 0 1-1.04 1.34Zm-10.26-14.2a.95.95 0 0 1-.61-.2 27.81 27.81 0 0 0-7.7-3.77 1.07 1.07 0 0 1 .65-2.05c2.97.93 5.76 2.3 8.28 4.08a1.07 1.07 0 0 1-.62 1.93Zm-19.74-5.11a1.07 1.07 0 0 1-.1-2.14 31.9 31.9 0 0 1 3.08-.15 1.07 1.07 0 1 1 0 2.14c-.95 0-1.9.06-2.86.15l-.1.03Zm-55.1-150.5a.98.98 0 0 1-.44-.1c-2.7-1.2-5.45-2.34-8.2-3.41a1.07 1.07 0 1 1 .79-2 198.9 198.9 0 0 1 8.3 3.47 1.07 1.07 0 0 1-.45 2.05Zm-16.64-6.5a1 1 0 0 1-.34-.04c-2.8-.94-5.65-1.83-8.48-2.64a1.07 1.07 0 1 1 .59-2.06c2.86.82 5.75 1.72 8.58 2.67a1.07 1.07 0 0 1-.34 2.1Zm-17.17-4.88c-.08 0-.17 0-.25-.04-2.87-.67-5.8-1.28-8.7-1.8a1.07 1.07 0 1 1 .4-2.12c2.92.54 5.88 1.15 8.79 1.84a1.07 1.07 0 0 1-.25 2.1ZM304 25.14h-.14c-2.92-.4-5.9-.72-8.82-.97a1.07 1.07 0 0 1 .18-2.14c2.97.25 5.97.59 8.93.98a1.07 1.07 0 0 1-.15 2.13Zm-17.8-1.52h-.03c-2.95-.11-5.97-.15-8.88-.12-.6 0-1.07-.4-1.08-1 0-.6.47-1.07 1.06-1.1 2.94-.01 6 .03 8.98.15a1.07 1.07 0 0 1-.04 2.14Zm39.39 239.1c-1.54 0-3.1-.02-4.63-.06a1.07 1.07 0 1 1 .06-2.14c2.94.07 5.92.08 8.87 0 .6-.03 1.08.45 1.1 1.05.02.6-.45 1.08-1.04 1.1-1.45.03-2.92.05-4.36.05Zm-13.52-.54H312l-.77-.06c-2.72-.23-5.47-.53-8.17-.9a1.07 1.07 0 0 1 .28-2.12c2.67.36 5.38.65 8.07.88l.8.06a1.07 1.07 0 0 1-.1 2.14ZM198.1 168.33c-.63 0-1.28 0-1.92-.02a1.07 1.07 0 0 1 .02-2.14h.02l1.88.02c2.3 0 4.64-.09 6.95-.25a1.07 1.07 0 1 1 .15 2.14c-2.35.17-4.74.25-7.1.25Zm-10.81-.6h-.12c-2.97-.33-5.98-.8-8.92-1.4a1.07 1.07 0 0 1 .43-2.1c2.88.58 5.81 1.04 8.73 1.37a1.07 1.07 0 0 1-.12 2.13Zm-47.3 107.05c-.75 0-1.51-.02-2.27-.06a1.08 1.08 0 0 1-1.01-1.13c.03-.6.53-1.1 1.13-1.1 2.9.14 5.82 0 8.67-.48a1.07 1.07 0 1 1 .34 2.12 42.4 42.4 0 0 1-6.85.56Zm15.29-2.9a1.08 1.08 0 0 1-.4-2.08 40.63 40.63 0 0 0 7.69-4.05 1.07 1.07 0 0 1 1.2 1.77 42.68 42.68 0 0 1-8.1 4.27 1.1 1.1 0 0 1-.39.07Z" fill="#3E4957"/><path d="M400.44 42.1a15.15 15.15 0 1 0-16.86 25.2 15.15 15.15 0 0 0 16.86-25.2Zm-14.68 21.94a11.23 11.23 0 1 1 12.49-18.67 11.23 11.23 0 0 1-12.49 18.67Z" fill="#16B054"/><path d="m372.96 84.84-1.78-1.2c-1.11-.73-1.48-2.1-.8-2.96l11.56-15c.62-.82 1.91-.91 2.94-.23 1.03.7 1.43 1.94.9 2.83l-9.79 16.2c-.56.93-1.94 1.1-3.03.36Z" fill="#16B054"/><path d="m383.61 71.1-3.51-2.38a1.2 1.2 0 0 1-.43-1.48l.42-.94a1.2 1.2 0 0 1 1.7-.51l3.8 2.54c.6.4.7 1.27.2 1.8l-.7.78a1.2 1.2 0 0 1-1.58.2Zm-2.7 53.75a1.07 1.07 0 0 1-.3-2.1 72.8 72.8 0 0 0 3.43-1.04 1.07 1.07 0 1 1 .67 2.03 79.77 79.77 0 0 1-3.8 1.13Zm11.75-4.39a1.07 1.07 0 0 1-.47-2.03 61.18 61.18 0 0 0 7.61-4.36 1.07 1.07 0 0 1 1.2 1.77 63.02 63.02 0 0 1-7.88 4.52c-.15.07-.3.1-.46.1Zm14.73-9.98a1.07 1.07 0 0 1-.8-1.86 53.6 53.6 0 0 0 3.52-3.62 141 141 0 0 0 2.45-2.81 1.07 1.07 0 0 1 1.65 1.37c-.82.98-1.68 1.95-2.5 2.87a55.67 55.67 0 0 1-3.68 3.76c-.2.09-.46.18-.73.18Zm10.9-13.98a.96.96 0 0 1-.48-.1 1.07 1.07 0 0 1-.55-1.4 16.05 16.05 0 0 0 1.37-6.46V88c-.03-.4-.05-.8-.1-1.2a1.07 1.07 0 0 1 2.15-.21 18.17 18.17 0 0 1-1.44 9.26c-.17.4-.57.65-1 .65Zm-1.6-17.07a1 1 0 0 1-.9-.51 26.29 26.29 0 0 0-5.7-6.4 1.07 1.07 0 0 1 1.32-1.65 28.47 28.47 0 0 1 6.14 6.92 1.07 1.07 0 0 1-.92 1.64Z" fill="#3E4957"/><path d="M36.15 185.7 0 199.14l13.72 3.73.84.23.91-.63 15.42-10.73 6.94-4.83.22-1.92-1.9.7Zm-21.93 15.46-8.38-2.28 25.05-9.32-16.67 11.6Z" fill="#16B054"/><path d="m36.15 185.7-5.26 6.04L20 204.26l-.23.25-.09.1.03.1 1.72.44 5.04 1.25 1.88.47 6.96 1.73 2.52-21.6.23-1.9-1.9.7Zm-2.39 20.58-10.82-2.7L35.8 188.8l-2.05 17.47Z" fill="#16B054"/><path d="m19.61 218.44-6.05-16a.9.9 0 1 1 1.67-.63l4.9 12.95 6.92-9.24a.9.9 0 0 1 1.43 1.07l-8.87 11.85Z" fill="#16B054"/><path d="M19.87 217.5h-.05a.9.9 0 0 1-.84-.95l.67-11.63a.9.9 0 1 1 1.78.1l-.67 11.63a.9.9 0 0 1-.89.85Z" fill="#16B054"/></svg>